<svg xmlns="http://www.w3.org/2000/svg" xmlns:xlink="http://www.w3.org/1999/xlink" xmlns:fi="http://pattern.flaticon.com/" x="0" y="0" width="700" height="350" viewBox="0 0 700 350"><rect x="0px" y="0px" width="100%" height="100%" opacity="1" fill="#ffffff"/><defs><g transform="matrix(0.1171875 0 0 0.1171875 73.00000001464844 11)" id="L1_63"><path d="m436.59375 64.097656c-48.292969-41.335937-112.429688-64.097656-180.59375-64.097656-57.578125 0-111.957031 16.046875-157.257812 46.410156-3.441407 2.308594-4.359376 6.964844-2.054688 10.40625s6.964844 4.359375 10.40625 2.054688c42.820312-28.699219 94.3125-43.871094 148.90625-43.871094 132.890625 0 241 92.046875 241 205.183594 0 113.140625-108.113281 205.1875-241 205.1875s-241-92.046875-241-205.1875c0-53.949219 24.433594-104.910156 68.800781-143.496094 3.125-2.71875 3.453125-7.457031.734375-10.582031s-7.457031-3.457031-10.582031-.738281c-47.6875 41.480468-73.953125 96.460937-73.953125 154.816406 0 59.039062 26.78125 114.472656 75.40625 156.089844 48.292969 41.332031 112.429688 64.097656 180.59375 64.097656s132.300781-22.765625 180.59375-64.097656c48.625-41.617188 75.40625-97.050782 75.40625-156.089844 0-59.035156-26.78125-114.46875-75.40625-156.085938zm0 0" fill="#34b9f5"/><path d="m142 233.757812c4.140625 0 7.5-3.359374 7.5-7.5v-16.003906c0-4.144531-3.359375-7.5-7.5-7.5s-7.5 3.355469-7.5 7.5v16.003906c0 4.140626 3.359375 7.5 7.5 7.5zm0 0" fill="#34b9f5"/><path d="m370 233.757812c4.140625 0 7.5-3.359374 7.5-7.5v-16.003906c0-4.144531-3.359375-7.5-7.5-7.5s-7.5 3.355469-7.5 7.5v16.003906c0 4.140626 3.359375 7.5 7.5 7.5zm0 0" fill="#34b9f5"/><path d="m256 249.296875c7.152344 0 13.9375-1.464844 20.023438-4.085937 6.386718-2.753907 4.441406-12.28125-2.515626-12.28125h-35.015624c-6.957032 0-8.902344 9.527343-2.515626 12.28125 6.085938 2.621093 12.871094 4.085937 20.023438 4.085937zm0 0" fill="#34b9f5"/><path d="m224.355469 263.679688c-2.726563-3.117188-7.464844-3.4375-10.585938-.710938-3.117187 2.726562-3.433593 7.464844-.710937 10.585938 6.007812 6.871093 14.863281 10.8125 24.292968 10.8125 6.804688 0 13.296876-2.058594 18.648438-5.78125 5.347656 3.722656 11.84375 5.78125 18.644531 5.78125 9.433594 0 18.285157-3.941407 24.292969-10.8125 2.726562-3.121094 2.410156-7.859376-.710938-10.585938-3.117187-2.726562-7.855468-2.40625-10.582031.710938-3.160156 3.617187-7.898437 5.6875-13 5.6875-5.105469 0-9.839843-2.070313-13-5.6875-2.929687-3.355469-8.363281-3.355469-11.292969 0-3.160156 3.613281-7.898437 5.6875-13 5.6875-5.105468 0-9.839843-2.070313-12.996093-5.6875zm0 0" fill="#34b9f5"/><path d="m102.953125 98.441406c-24.066406 20.882813-41.71875 46.554688-51.050781 74.246094-5.191406 15.398438-7.824219 31.378906-7.824219 47.496094 0 16.121094 2.632813 32.105468 7.824219 47.507812 12.277344 36.417969 39.054687 69.214844 75.398437 92.355469 37.246094 23.714844 81.75 36.25 128.699219 36.25 37.671875 0 74.695312-8.355469 107.066406-24.152344 3.722656-1.820312 5.269532-6.308593 3.453125-10.03125-1.816406-3.722656-6.308593-5.265625-10.03125-3.453125-30.335937 14.808594-65.085937 22.636719-100.488281 22.636719-80.664062 0-152.804688-40.632813-182.589844-100.800781.886719.324218 1.777344.636718 2.679688.945312 13.101562 4.441406 26.988281 6.574219 40.816406 6.574219h.09375c26.382812 0 54.066406-7.511719 74.105469-25.335937 13.4375-11.953126 20.722656-26.757813 20.722656-42.496094 0-10.058594-2.980469-19.734375-8.636719-28.527344-16.320312-25.378906-48-37.007812-76.953125-38.988281-17.5625-1.199219-36.066406 1.054687-52.800781 7.195312 9.164062-18.433593 22.535156-35.507812 39.347656-50.09375 18.976563-16.464843 60.761719-17.503906 81.289063-2.015625.019531.011719.035156.027344.054687.039063.707032.53125 15.753906 11.875 23.667969 17.84375 22.5 16.957031 53.921875 16.957031 76.410156-.003907l-.023437-.027343c1.757812-1.277344 6.882812-5.140625 23.742187-17.851563 20.53125-15.484375 62.316407-14.449218 81.289063 2.015625 16.8125 14.585938 30.183594 31.660157 39.347656 50.097657-.882812-.324219-2.953125-1.03125-3.09375-1.082032-15.890625-5.332031-33.007812-7.257812-49.707031-6.117187-20.011719 1.367187-40.167969 7.214843-56.777344 18.6875-18 12.433593-28.167969 29.097656-28.785156 47.085937-.714844 21.019532 12.054687 39.015625 28.785156 50.574219 17.738281 12.253906 41.179687 19 66.015625 19h.09375c14.769531 0 29.628906-2.421875 43.507812-7.523437-12.226562 24.742187-31.796874 46.59375-57.421874 63.917968-3.433594 2.320313-4.332032 6.980469-2.015626 10.414063 2.324219 3.429687 6.984376 4.332031 10.414063 2.011719 34.289063-23.183594 58.675781-54.007813 70.519531-89.144532 5.1875-15.402344 7.820313-31.382812 7.820313-47.503906s-2.632813-32.105469-7.820313-47.503906c-9.332031-27.6875-26.984375-53.359375-51.050781-74.242188-24.332031-21.113281-73.941406-22.433594-100.152344-2.664062-7.917969 5.972656-22.980469 17.328125-23.667969 17.84375-.015624.011718-.035156.023437-.050781.039062-16.902343 12.746094-41.441406 12.746094-58.351562 0-16.855469-12.710937-21.980469-16.574218-23.738281-17.851562l.019531-.027344c-26.207031-19.773438-75.8125-18.457031-100.152344 2.660156zm71.535156 85.253906c14.40625 9.953126 22.339844 22.910157 22.339844 36.488282 0 15.328125-10.265625 28.148437-22.339844 36.492187-15.253906 10.535157-35.671875 16.339844-57.488281 16.339844-17.597656 0-35.898438-3.808594-51.472656-12.589844-.089844-.050781-.175782-.105469-.265625-.160156-4.105469-13.039063-6.183594-26.507813-6.183594-40.082031 0-13.570313 2.078125-27.039063 6.183594-40.082032.089843-.050781.175781-.105468.265625-.15625 15.464844-8.742187 33.792968-12.589843 51.472656-12.589843 21.816406 0 42.234375 5.800781 57.488281 16.339843zm140.683594 36.488282c0-13.578125 7.933594-26.535156 22.339844-36.488282 15.253906-10.539062 35.671875-16.339843 57.488281-16.339843 17.910156 0 36.078125 3.855469 51.738281 12.746093 4.105469 13.039063 6.183594 26.511719 6.183594 40.082032 0 13.574218-2.078125 27.042968-6.183594 40.082031-.089843.054687-.175781.105469-.265625.160156-15.578125 8.785157-33.691406 12.589844-51.472656 12.589844-21.816406 0-42.234375-5.804687-57.488281-16.339844-11.902344-8.226562-22.339844-21.128906-22.339844-36.492187zm0 0" fill="#34b9f5"/></g><g transform="matrix(0.1171875 0 0 0.1171875 51.000000043945306 107)"><path d="m436.59375 64.097656c-48.292969-41.335937-112.429688-64.097656-180.59375-64.097656-57.578125 0-111.957031 16.046875-157.257812 46.410156-3.441407 2.308594-4.359376 6.964844-2.054688 10.40625s6.964844 4.359375 10.40625 2.054688c42.820312-28.699219 94.3125-43.871094 148.90625-43.871094 132.890625 0 241 92.046875 241 205.183594 0 113.140625-108.113281 205.1875-241 205.1875s-241-92.046875-241-205.1875c0-53.949219 24.433594-104.910156 68.800781-143.496094 3.125-2.71875 3.453125-7.457031.734375-10.582031s-7.457031-3.457031-10.582031-.738281c-47.6875 41.480468-73.953125 96.460937-73.953125 154.816406 0 59.039062 26.78125 114.472656 75.40625 156.089844 48.292969 41.332031 112.429688 64.097656 180.59375 64.097656s132.300781-22.765625 180.59375-64.097656c48.625-41.617188 75.40625-97.050782 75.40625-156.089844 0-59.035156-26.78125-114.46875-75.40625-156.085938zm0 0" fill="#34b9f5"/><path d="m142 233.757812c4.140625 0 7.5-3.359374 7.5-7.5v-16.003906c0-4.144531-3.359375-7.5-7.5-7.5s-7.5 3.355469-7.5 7.5v16.003906c0 4.140626 3.359375 7.5 7.5 7.5zm0 0" fill="#34b9f5"/><path d="m370 233.757812c4.140625 0 7.5-3.359374 7.5-7.5v-16.003906c0-4.144531-3.359375-7.5-7.5-7.5s-7.5 3.355469-7.5 7.5v16.003906c0 4.140626 3.359375 7.5 7.5 7.5zm0 0" fill="#34b9f5"/><path d="m256 249.296875c7.152344 0 13.9375-1.464844 20.023438-4.085937 6.386718-2.753907 4.441406-12.28125-2.515626-12.28125h-35.015624c-6.957032 0-8.902344 9.527343-2.515626 12.28125 6.085938 2.621093 12.871094 4.085937 20.023438 4.085937zm0 0" fill="#34b9f5"/><path d="m224.355469 263.679688c-2.726563-3.117188-7.464844-3.4375-10.585938-.710938-3.117187 2.726562-3.433593 7.464844-.710937 10.585938 6.007812 6.871093 14.863281 10.8125 24.292968 10.8125 6.804688 0 13.296876-2.058594 18.648438-5.78125 5.347656 3.722656 11.84375 5.78125 18.644531 5.78125 9.433594 0 18.285157-3.941407 24.292969-10.8125 2.726562-3.121094 2.410156-7.859376-.710938-10.585938-3.117187-2.726562-7.855468-2.40625-10.582031.710938-3.160156 3.617187-7.898437 5.6875-13 5.6875-5.105469 0-9.839843-2.070313-13-5.6875-2.929687-3.355469-8.363281-3.355469-11.292969 0-3.160156 3.613281-7.898437 5.6875-13 5.6875-5.105468 0-9.839843-2.070313-12.996093-5.6875zm0 0" fill="#34b9f5"/><path d="m102.953125 98.441406c-24.066406 20.882813-41.71875 46.554688-51.050781 74.246094-5.191406 15.398438-7.824219 31.378906-7.824219 47.496094 0 16.121094 2.632813 32.105468 7.824219 47.507812 12.277344 36.417969 39.054687 69.214844 75.398437 92.355469 37.246094 23.714844 81.75 36.25 128.699219 36.25 37.671875 0 74.695312-8.355469 107.066406-24.152344 3.722656-1.820312 5.269532-6.308593 3.453125-10.03125-1.816406-3.722656-6.308593-5.265625-10.03125-3.453125-30.335937 14.808594-65.085937 22.636719-100.488281 22.636719-80.664062 0-152.804688-40.632813-182.589844-100.800781.886719.324218 1.777344.636718 2.679688.945312 13.101562 4.441406 26.988281 6.574219 40.816406 6.574219h.09375c26.382812 0 54.066406-7.511719 74.105469-25.335937 13.4375-11.953126 20.722656-26.757813 20.722656-42.496094 0-10.058594-2.980469-19.734375-8.636719-28.527344-16.320312-25.378906-48-37.007812-76.953125-38.988281-17.5625-1.199219-36.066406 1.054687-52.800781 7.195312 9.164062-18.433593 22.535156-35.507812 39.347656-50.09375 18.976563-16.464843 60.761719-17.503906 81.289063-2.015625.019531.011719.035156.027344.054687.039063.707032.53125 15.753906 11.875 23.667969 17.84375 22.5 16.957031 53.921875 16.957031 76.410156-.003907l-.023437-.027343c1.757812-1.277344 6.882812-5.140625 23.742187-17.851563 20.53125-15.484375 62.316407-14.449218 81.289063 2.015625 16.8125 14.585938 30.183594 31.660157 39.347656 50.097657-.882812-.324219-2.953125-1.03125-3.09375-1.082032-15.890625-5.332031-33.007812-7.257812-49.707031-6.117187-20.011719 1.367187-40.167969 7.214843-56.777344 18.6875-18 12.433593-28.167969 29.097656-28.785156 47.085937-.714844 21.019532 12.054687 39.015625 28.785156 50.574219 17.738281 12.253906 41.179687 19 66.015625 19h.09375c14.769531 0 29.628906-2.421875 43.507812-7.523437-12.226562 24.742187-31.796874 46.59375-57.421874 63.917968-3.433594 2.320313-4.332032 6.980469-2.015626 10.414063 2.324219 3.429687 6.984376 4.332031 10.414063 2.011719 34.289063-23.183594 58.675781-54.007813 70.519531-89.144532 5.1875-15.402344 7.820313-31.382812 7.820313-47.503906s-2.632813-32.105469-7.820313-47.503906c-9.332031-27.6875-26.984375-53.359375-51.050781-74.242188-24.332031-21.113281-73.941406-22.433594-100.152344-2.664062-7.917969 5.972656-22.980469 17.328125-23.667969 17.84375-.015624.011718-.035156.023437-.050781.039062-16.902343 12.746094-41.441406 12.746094-58.351562 0-16.855469-12.710937-21.980469-16.574218-23.738281-17.851562l.019531-.027344c-26.207031-19.773438-75.8125-18.457031-100.152344 2.660156zm71.535156 85.253906c14.40625 9.953126 22.339844 22.910157 22.339844 36.488282 0 15.328125-10.265625 28.148437-22.339844 36.492187-15.253906 10.535157-35.671875 16.339844-57.488281 16.339844-17.597656 0-35.898438-3.808594-51.472656-12.589844-.089844-.050781-.175782-.105469-.265625-.160156-4.105469-13.039063-6.183594-26.507813-6.183594-40.082031 0-13.570313 2.078125-27.039063 6.183594-40.082032.089843-.050781.175781-.105468.265625-.15625 15.464844-8.742187 33.792968-12.589843 51.472656-12.589843 21.816406 0 42.234375 5.800781 57.488281 16.339843zm140.683594 36.488282c0-13.578125 7.933594-26.535156 22.339844-36.488282 15.253906-10.539062 35.671875-16.339843 57.488281-16.339843 17.910156 0 36.078125 3.855469 51.738281 12.746093 4.105469 13.039063 6.183594 26.511719 6.183594 40.082032 0 13.574218-2.078125 27.042968-6.183594 40.082031-.089843.054687-.175781.105469-.265625.160156-15.578125 8.785157-33.691406 12.589844-51.472656 12.589844-21.816406 0-42.234375-5.804687-57.488281-16.339844-11.902344-8.226562-22.339844-21.128906-22.339844-36.492187zm0 0" fill="#34b9f5"/></g><g transform="matrix(0.1171875 0 0 0.1171875 281.0000000732422 142)"><path d="m436.59375 64.097656c-48.292969-41.335937-112.429688-64.097656-180.59375-64.097656-57.578125 0-111.957031 16.046875-157.257812 46.410156-3.441407 2.308594-4.359376 6.964844-2.054688 10.40625s6.964844 4.359375 10.40625 2.054688c42.820312-28.699219 94.3125-43.871094 148.90625-43.871094 132.890625 0 241 92.046875 241 205.183594 0 113.140625-108.113281 205.1875-241 205.1875s-241-92.046875-241-205.1875c0-53.949219 24.433594-104.910156 68.800781-143.496094 3.125-2.71875 3.453125-7.457031.734375-10.582031s-7.457031-3.457031-10.582031-.738281c-47.6875 41.480468-73.953125 96.460937-73.953125 154.816406 0 59.039062 26.78125 114.472656 75.40625 156.089844 48.292969 41.332031 112.429688 64.097656 180.59375 64.097656s132.300781-22.765625 180.59375-64.097656c48.625-41.617188 75.40625-97.050782 75.40625-156.089844 0-59.035156-26.78125-114.46875-75.40625-156.085938zm0 0" fill="#34b9f5"/><path d="m142 233.757812c4.140625 0 7.5-3.359374 7.5-7.5v-16.003906c0-4.144531-3.359375-7.5-7.5-7.5s-7.5 3.355469-7.5 7.5v16.003906c0 4.140626 3.359375 7.5 7.5 7.5zm0 0" fill="#34b9f5"/><path d="m370 233.757812c4.140625 0 7.5-3.359374 7.5-7.5v-16.003906c0-4.144531-3.359375-7.5-7.5-7.5s-7.5 3.355469-7.5 7.5v16.003906c0 4.140626 3.359375 7.5 7.5 7.5zm0 0" fill="#34b9f5"/><path d="m256 249.296875c7.152344 0 13.9375-1.464844 20.023438-4.085937 6.386718-2.753907 4.441406-12.28125-2.515626-12.28125h-35.015624c-6.957032 0-8.902344 9.527343-2.515626 12.28125 6.085938 2.621093 12.871094 4.085937 20.023438 4.085937zm0 0" fill="#34b9f5"/><path d="m224.355469 263.679688c-2.726563-3.117188-7.464844-3.4375-10.585938-.710938-3.117187 2.726562-3.433593 7.464844-.710937 10.585938 6.007812 6.871093 14.863281 10.8125 24.292968 10.8125 6.804688 0 13.296876-2.058594 18.648438-5.78125 5.347656 3.722656 11.84375 5.78125 18.644531 5.78125 9.433594 0 18.285157-3.941407 24.292969-10.8125 2.726562-3.121094 2.410156-7.859376-.710938-10.585938-3.117187-2.726562-7.855468-2.40625-10.582031.710938-3.160156 3.617187-7.898437 5.6875-13 5.6875-5.105469 0-9.839843-2.070313-13-5.6875-2.929687-3.355469-8.363281-3.355469-11.292969 0-3.160156 3.613281-7.898437 5.6875-13 5.6875-5.105468 0-9.839843-2.070313-12.996093-5.6875zm0 0" fill="#34b9f5"/><path d="m102.953125 98.441406c-24.066406 20.882813-41.71875 46.554688-51.050781 74.246094-5.191406 15.398438-7.824219 31.378906-7.824219 47.496094 0 16.121094 2.632813 32.105468 7.824219 47.507812 12.277344 36.417969 39.054687 69.214844 75.398437 92.355469 37.246094 23.714844 81.75 36.25 128.699219 36.25 37.671875 0 74.695312-8.355469 107.066406-24.152344 3.722656-1.820312 5.269532-6.308593 3.453125-10.03125-1.816406-3.722656-6.308593-5.265625-10.03125-3.453125-30.335937 14.808594-65.085937 22.636719-100.488281 22.636719-80.664062 0-152.804688-40.632813-182.589844-100.800781.886719.324218 1.777344.636718 2.679688.945312 13.101562 4.441406 26.988281 6.574219 40.816406 6.574219h.09375c26.382812 0 54.066406-7.511719 74.105469-25.335937 13.4375-11.953126 20.722656-26.757813 20.722656-42.496094 0-10.058594-2.980469-19.734375-8.636719-28.527344-16.320312-25.378906-48-37.007812-76.953125-38.988281-17.5625-1.199219-36.066406 1.054687-52.800781 7.195312 9.164062-18.433593 22.535156-35.507812 39.347656-50.09375 18.976563-16.464843 60.761719-17.503906 81.289063-2.015625.019531.011719.035156.027344.054687.039063.707032.53125 15.753906 11.875 23.667969 17.84375 22.5 16.957031 53.921875 16.957031 76.410156-.003907l-.023437-.027343c1.757812-1.277344 6.882812-5.140625 23.742187-17.851563 20.53125-15.484375 62.316407-14.449218 81.289063 2.015625 16.8125 14.585938 30.183594 31.660157 39.347656 50.097657-.882812-.324219-2.953125-1.03125-3.09375-1.082032-15.890625-5.332031-33.007812-7.257812-49.707031-6.117187-20.011719 1.367187-40.167969 7.214843-56.777344 18.6875-18 12.433593-28.167969 29.097656-28.785156 47.085937-.714844 21.019532 12.054687 39.015625 28.785156 50.574219 17.738281 12.253906 41.179687 19 66.015625 19h.09375c14.769531 0 29.628906-2.421875 43.507812-7.523437-12.226562 24.742187-31.796874 46.59375-57.421874 63.917968-3.433594 2.320313-4.332032 6.980469-2.015626 10.414063 2.324219 3.429687 6.984376 4.332031 10.414063 2.011719 34.289063-23.183594 58.675781-54.007813 70.519531-89.144532 5.1875-15.402344 7.820313-31.382812 7.820313-47.503906s-2.632813-32.105469-7.820313-47.503906c-9.332031-27.6875-26.984375-53.359375-51.050781-74.242188-24.332031-21.113281-73.941406-22.433594-100.152344-2.664062-7.917969 5.972656-22.980469 17.328125-23.667969 17.84375-.015624.011718-.035156.023437-.050781.039062-16.902343 12.746094-41.441406 12.746094-58.351562 0-16.855469-12.710937-21.980469-16.574218-23.738281-17.851562l.019531-.027344c-26.207031-19.773438-75.8125-18.457031-100.152344 2.660156zm71.535156 85.253906c14.40625 9.953126 22.339844 22.910157 22.339844 36.488282 0 15.328125-10.265625 28.148437-22.339844 36.492187-15.253906 10.535157-35.671875 16.339844-57.488281 16.339844-17.597656 0-35.898438-3.808594-51.472656-12.589844-.089844-.050781-.175782-.105469-.265625-.160156-4.105469-13.039063-6.183594-26.507813-6.183594-40.082031 0-13.570313 2.078125-27.039063 6.183594-40.082032.089843-.050781.175781-.105468.265625-.15625 15.464844-8.742187 33.792968-12.589843 51.472656-12.589843 21.816406 0 42.234375 5.800781 57.488281 16.339843zm140.683594 36.488282c0-13.578125 7.933594-26.535156 22.339844-36.488282 15.253906-10.539062 35.671875-16.339843 57.488281-16.339843 17.910156 0 36.078125 3.855469 51.738281 12.746093 4.105469 13.039063 6.183594 26.511719 6.183594 40.082032 0 13.574218-2.078125 27.042968-6.183594 40.082031-.089843.054687-.175781.105469-.265625.160156-15.578125 8.785157-33.691406 12.589844-51.472656 12.589844-21.816406 0-42.234375-5.804687-57.488281-16.339844-11.902344-8.226562-22.339844-21.128906-22.339844-36.492187zm0 0" fill="#34b9f5"/></g><g transform="matrix(0.1171875 0 0 0.1171875 164.0000000878906 178)"><path d="m436.59375 64.097656c-48.292969-41.335937-112.429688-64.097656-180.59375-64.097656-57.578125 0-111.957031 16.046875-157.257812 46.410156-3.441407 2.308594-4.359376 6.964844-2.054688 10.40625s6.964844 4.359375 10.40625 2.054688c42.820312-28.699219 94.3125-43.871094 148.90625-43.871094 132.890625 0 241 92.046875 241 205.183594 0 113.140625-108.113281 205.1875-241 205.1875s-241-92.046875-241-205.1875c0-53.949219 24.433594-104.910156 68.800781-143.496094 3.125-2.71875 3.453125-7.457031.734375-10.582031s-7.457031-3.457031-10.582031-.738281c-47.6875 41.480468-73.953125 96.460937-73.953125 154.816406 0 59.039062 26.78125 114.472656 75.40625 156.089844 48.292969 41.332031 112.429688 64.097656 180.59375 64.097656s132.300781-22.765625 180.59375-64.097656c48.625-41.617188 75.40625-97.050782 75.40625-156.089844 0-59.035156-26.78125-114.46875-75.40625-156.085938zm0 0" fill="#34b9f5"/><path d="m142 233.757812c4.140625 0 7.5-3.359374 7.5-7.5v-16.003906c0-4.144531-3.359375-7.5-7.5-7.5s-7.5 3.355469-7.5 7.5v16.003906c0 4.140626 3.359375 7.5 7.5 7.5zm0 0" fill="#34b9f5"/><path d="m370 233.757812c4.140625 0 7.5-3.359374 7.5-7.5v-16.003906c0-4.144531-3.359375-7.5-7.5-7.5s-7.5 3.355469-7.5 7.5v16.003906c0 4.140626 3.359375 7.5 7.5 7.5zm0 0" fill="#34b9f5"/><path d="m256 249.296875c7.152344 0 13.9375-1.464844 20.023438-4.085937 6.386718-2.753907 4.441406-12.28125-2.515626-12.28125h-35.015624c-6.957032 0-8.902344 9.527343-2.515626 12.28125 6.085938 2.621093 12.871094 4.085937 20.023438 4.085937zm0 0" fill="#34b9f5"/><path d="m224.355469 263.679688c-2.726563-3.117188-7.464844-3.4375-10.585938-.710938-3.117187 2.726562-3.433593 7.464844-.710937 10.585938 6.007812 6.871093 14.863281 10.8125 24.292968 10.8125 6.804688 0 13.296876-2.058594 18.648438-5.78125 5.347656 3.722656 11.84375 5.78125 18.644531 5.78125 9.433594 0 18.285157-3.941407 24.292969-10.8125 2.726562-3.121094 2.410156-7.859376-.710938-10.585938-3.117187-2.726562-7.855468-2.40625-10.582031.710938-3.160156 3.617187-7.898437 5.6875-13 5.6875-5.105469 0-9.839843-2.070313-13-5.6875-2.929687-3.355469-8.363281-3.355469-11.292969 0-3.160156 3.613281-7.898437 5.6875-13 5.6875-5.105468 0-9.839843-2.070313-12.996093-5.6875zm0 0" fill="#34b9f5"/><path d="m102.953125 98.441406c-24.066406 20.882813-41.71875 46.554688-51.050781 74.246094-5.191406 15.398438-7.824219 31.378906-7.824219 47.496094 0 16.121094 2.632813 32.105468 7.824219 47.507812 12.277344 36.417969 39.054687 69.214844 75.398437 92.355469 37.246094 23.714844 81.75 36.25 128.699219 36.25 37.671875 0 74.695312-8.355469 107.066406-24.152344 3.722656-1.820312 5.269532-6.308593 3.453125-10.03125-1.816406-3.722656-6.308593-5.265625-10.03125-3.453125-30.335937 14.808594-65.085937 22.636719-100.488281 22.636719-80.664062 0-152.804688-40.632813-182.589844-100.800781.886719.324218 1.777344.636718 2.679688.945312 13.101562 4.441406 26.988281 6.574219 40.816406 6.574219h.09375c26.382812 0 54.066406-7.511719 74.105469-25.335937 13.4375-11.953126 20.722656-26.757813 20.722656-42.496094 0-10.058594-2.980469-19.734375-8.636719-28.527344-16.320312-25.378906-48-37.007812-76.953125-38.988281-17.5625-1.199219-36.066406 1.054687-52.800781 7.195312 9.164062-18.433593 22.535156-35.507812 39.347656-50.09375 18.976563-16.464843 60.761719-17.503906 81.289063-2.015625.019531.011719.035156.027344.054687.039063.707032.53125 15.753906 11.875 23.667969 17.84375 22.5 16.957031 53.921875 16.957031 76.410156-.003907l-.023437-.027343c1.757812-1.277344 6.882812-5.140625 23.742187-17.851563 20.53125-15.484375 62.316407-14.449218 81.289063 2.015625 16.8125 14.585938 30.183594 31.660157 39.347656 50.097657-.882812-.324219-2.953125-1.03125-3.09375-1.082032-15.890625-5.332031-33.007812-7.257812-49.707031-6.117187-20.011719 1.367187-40.167969 7.214843-56.777344 18.6875-18 12.433593-28.167969 29.097656-28.785156 47.085937-.714844 21.019532 12.054687 39.015625 28.785156 50.574219 17.738281 12.253906 41.179687 19 66.015625 19h.09375c14.769531 0 29.628906-2.421875 43.507812-7.523437-12.226562 24.742187-31.796874 46.59375-57.421874 63.917968-3.433594 2.320313-4.332032 6.980469-2.015626 10.414063 2.324219 3.429687 6.984376 4.332031 10.414063 2.011719 34.289063-23.183594 58.675781-54.007813 70.519531-89.144532 5.1875-15.402344 7.820313-31.382812 7.820313-47.503906s-2.632813-32.105469-7.820313-47.503906c-9.332031-27.6875-26.984375-53.359375-51.050781-74.242188-24.332031-21.113281-73.941406-22.433594-100.152344-2.664062-7.917969 5.972656-22.980469 17.328125-23.667969 17.84375-.015624.011718-.035156.023437-.050781.039062-16.902343 12.746094-41.441406 12.746094-58.351562 0-16.855469-12.710937-21.980469-16.574218-23.738281-17.851562l.019531-.027344c-26.207031-19.773438-75.8125-18.457031-100.152344 2.660156zm71.535156 85.253906c14.40625 9.953126 22.339844 22.910157 22.339844 36.488282 0 15.328125-10.265625 28.148437-22.339844 36.492187-15.253906 10.535157-35.671875 16.339844-57.488281 16.339844-17.597656 0-35.898438-3.808594-51.472656-12.589844-.089844-.050781-.175782-.105469-.265625-.160156-4.105469-13.039063-6.183594-26.507813-6.183594-40.082031 0-13.570313 2.078125-27.039063 6.183594-40.082032.089843-.050781.175781-.105468.265625-.15625 15.464844-8.742187 33.792968-12.589843 51.472656-12.589843 21.816406 0 42.234375 5.800781 57.488281 16.339843zm140.683594 36.488282c0-13.578125 7.933594-26.535156 22.339844-36.488282 15.253906-10.539062 35.671875-16.339843 57.488281-16.339843 17.910156 0 36.078125 3.855469 51.738281 12.746093 4.105469 13.039063 6.183594 26.511719 6.183594 40.082032 0 13.574218-2.078125 27.042968-6.183594 40.082031-.089843.054687-.175781.105469-.265625.160156-15.578125 8.785157-33.691406 12.589844-51.472656 12.589844-21.816406 0-42.234375-5.804687-57.488281-16.339844-11.902344-8.226562-22.339844-21.128906-22.339844-36.492187zm0 0" fill="#34b9f5"/></g><g transform="matrix(0.1171875 0 0 0.1171875 66.00000010253905 104)"><path d="m436.59375 64.097656c-48.292969-41.335937-112.429688-64.097656-180.59375-64.097656-57.578125 0-111.957031 16.046875-157.257812 46.410156-3.441407 2.308594-4.359376 6.964844-2.054688 10.40625s6.964844 4.359375 10.40625 2.054688c42.820312-28.699219 94.3125-43.871094 148.90625-43.871094 132.890625 0 241 92.046875 241 205.183594 0 113.140625-108.113281 205.1875-241 205.1875s-241-92.046875-241-205.1875c0-53.949219 24.433594-104.910156 68.800781-143.496094 3.125-2.71875 3.453125-7.457031.734375-10.582031s-7.457031-3.457031-10.582031-.738281c-47.6875 41.480468-73.953125 96.460937-73.953125 154.816406 0 59.039062 26.78125 114.472656 75.40625 156.089844 48.292969 41.332031 112.429688 64.097656 180.59375 64.097656s132.300781-22.765625 180.59375-64.097656c48.625-41.617188 75.40625-97.050782 75.40625-156.089844 0-59.035156-26.78125-114.46875-75.40625-156.085938zm0 0" fill="#34b9f5"/><path d="m142 233.757812c4.140625 0 7.5-3.359374 7.5-7.5v-16.003906c0-4.144531-3.359375-7.5-7.5-7.5s-7.5 3.355469-7.5 7.5v16.003906c0 4.140626 3.359375 7.5 7.5 7.5zm0 0" fill="#34b9f5"/><path d="m370 233.757812c4.140625 0 7.5-3.359374 7.5-7.5v-16.003906c0-4.144531-3.359375-7.5-7.5-7.5s-7.5 3.355469-7.5 7.5v16.003906c0 4.140626 3.359375 7.5 7.5 7.5zm0 0" fill="#34b9f5"/><path d="m256 249.296875c7.152344 0 13.9375-1.464844 20.023438-4.085937 6.386718-2.753907 4.441406-12.28125-2.515626-12.28125h-35.015624c-6.957032 0-8.902344 9.527343-2.515626 12.28125 6.085938 2.621093 12.871094 4.085937 20.023438 4.085937zm0 0" fill="#34b9f5"/><path d="m224.355469 263.679688c-2.726563-3.117188-7.464844-3.4375-10.585938-.710938-3.117187 2.726562-3.433593 7.464844-.710937 10.585938 6.007812 6.871093 14.863281 10.8125 24.292968 10.8125 6.804688 0 13.296876-2.058594 18.648438-5.78125 5.347656 3.722656 11.84375 5.78125 18.644531 5.78125 9.433594 0 18.285157-3.941407 24.292969-10.8125 2.726562-3.121094 2.410156-7.859376-.710938-10.585938-3.117187-2.726562-7.855468-2.40625-10.582031.710938-3.160156 3.617187-7.898437 5.6875-13 5.6875-5.105469 0-9.839843-2.070313-13-5.6875-2.929687-3.355469-8.363281-3.355469-11.292969 0-3.160156 3.613281-7.898437 5.6875-13 5.6875-5.105468 0-9.839843-2.070313-12.996093-5.6875zm0 0" fill="#34b9f5"/><path d="m102.953125 98.441406c-24.066406 20.882813-41.71875 46.554688-51.050781 74.246094-5.191406 15.398438-7.824219 31.378906-7.824219 47.496094 0 16.121094 2.632813 32.105468 7.824219 47.507812 12.277344 36.417969 39.054687 69.214844 75.398437 92.355469 37.246094 23.714844 81.75 36.25 128.699219 36.25 37.671875 0 74.695312-8.355469 107.066406-24.152344 3.722656-1.820312 5.269532-6.308593 3.453125-10.03125-1.816406-3.722656-6.308593-5.265625-10.03125-3.453125-30.335937 14.808594-65.085937 22.636719-100.488281 22.636719-80.664062 0-152.804688-40.632813-182.589844-100.800781.886719.324218 1.777344.636718 2.679688.945312 13.101562 4.441406 26.988281 6.574219 40.816406 6.574219h.09375c26.382812 0 54.066406-7.511719 74.105469-25.335937 13.4375-11.953126 20.722656-26.757813 20.722656-42.496094 0-10.058594-2.980469-19.734375-8.636719-28.527344-16.320312-25.378906-48-37.007812-76.953125-38.988281-17.5625-1.199219-36.066406 1.054687-52.800781 7.195312 9.164062-18.433593 22.535156-35.507812 39.347656-50.09375 18.976563-16.464843 60.761719-17.503906 81.289063-2.015625.019531.011719.035156.027344.054687.039063.707032.53125 15.753906 11.875 23.667969 17.84375 22.5 16.957031 53.921875 16.957031 76.410156-.003907l-.023437-.027343c1.757812-1.277344 6.882812-5.140625 23.742187-17.851563 20.53125-15.484375 62.316407-14.449218 81.289063 2.015625 16.8125 14.585938 30.183594 31.660157 39.347656 50.097657-.882812-.324219-2.953125-1.03125-3.09375-1.082032-15.890625-5.332031-33.007812-7.257812-49.707031-6.117187-20.011719 1.367187-40.167969 7.214843-56.777344 18.6875-18 12.433593-28.167969 29.097656-28.785156 47.085937-.714844 21.019532 12.054687 39.015625 28.785156 50.574219 17.738281 12.253906 41.179687 19 66.015625 19h.09375c14.769531 0 29.628906-2.421875 43.507812-7.523437-12.226562 24.742187-31.796874 46.59375-57.421874 63.917968-3.433594 2.320313-4.332032 6.980469-2.015626 10.414063 2.324219 3.429687 6.984376 4.332031 10.414063 2.011719 34.289063-23.183594 58.675781-54.007813 70.519531-89.144532 5.1875-15.402344 7.820313-31.382812 7.820313-47.503906s-2.632813-32.105469-7.820313-47.503906c-9.332031-27.6875-26.984375-53.359375-51.050781-74.242188-24.332031-21.113281-73.941406-22.433594-100.152344-2.664062-7.917969 5.972656-22.980469 17.328125-23.667969 17.84375-.015624.011718-.035156.023437-.050781.039062-16.902343 12.746094-41.441406 12.746094-58.351562 0-16.855469-12.710937-21.980469-16.574218-23.738281-17.851562l.019531-.027344c-26.207031-19.773438-75.8125-18.457031-100.152344 2.660156zm71.535156 85.253906c14.40625 9.953126 22.339844 22.910157 22.339844 36.488282 0 15.328125-10.265625 28.148437-22.339844 36.492187-15.253906 10.535157-35.671875 16.339844-57.488281 16.339844-17.597656 0-35.898438-3.808594-51.472656-12.589844-.089844-.050781-.175782-.105469-.265625-.160156-4.105469-13.039063-6.183594-26.507813-6.183594-40.082031 0-13.570313 2.078125-27.039063 6.183594-40.082032.089843-.050781.175781-.105468.265625-.15625 15.464844-8.742187 33.792968-12.589843 51.472656-12.589843 21.816406 0 42.234375 5.800781 57.488281 16.339843zm140.683594 36.488282c0-13.578125 7.933594-26.535156 22.339844-36.488282 15.253906-10.539062 35.671875-16.339843 57.488281-16.339843 17.910156 0 36.078125 3.855469 51.738281 12.746093 4.105469 13.039063 6.183594 26.511719 6.183594 40.082032 0 13.574218-2.078125 27.042968-6.183594 40.082031-.089843.054687-.175781.105469-.265625.160156-15.578125 8.785157-33.691406 12.589844-51.472656 12.589844-21.816406 0-42.234375-5.804687-57.488281-16.339844-11.902344-8.226562-22.339844-21.128906-22.339844-36.492187zm0 0" fill="#34b9f5"/></g><g transform="matrix(0.1171875 0 0 0.1171875 125.00000010253905 29)"><path d="m436.59375 64.097656c-48.292969-41.335937-112.429688-64.097656-180.59375-64.097656-57.578125 0-111.957031 16.046875-157.257812 46.410156-3.441407 2.308594-4.359376 6.964844-2.054688 10.40625s6.964844 4.359375 10.40625 2.054688c42.820312-28.699219 94.3125-43.871094 148.90625-43.871094 132.890625 0 241 92.046875 241 205.183594 0 113.140625-108.113281 205.1875-241 205.1875s-241-92.046875-241-205.1875c0-53.949219 24.433594-104.910156 68.800781-143.496094 3.125-2.71875 3.453125-7.457031.734375-10.582031s-7.457031-3.457031-10.582031-.738281c-47.6875 41.480468-73.953125 96.460937-73.953125 154.816406 0 59.039062 26.78125 114.472656 75.40625 156.089844 48.292969 41.332031 112.429688 64.097656 180.59375 64.097656s132.300781-22.765625 180.59375-64.097656c48.625-41.617188 75.40625-97.050782 75.40625-156.089844 0-59.035156-26.78125-114.46875-75.40625-156.085938zm0 0" fill="#34b9f5"/><path d="m142 233.757812c4.140625 0 7.5-3.359374 7.5-7.5v-16.003906c0-4.144531-3.359375-7.5-7.5-7.5s-7.5 3.355469-7.5 7.5v16.003906c0 4.140626 3.359375 7.5 7.5 7.5zm0 0" fill="#34b9f5"/><path d="m370 233.757812c4.140625 0 7.5-3.359374 7.5-7.5v-16.003906c0-4.144531-3.359375-7.5-7.5-7.5s-7.5 3.355469-7.5 7.5v16.003906c0 4.140626 3.359375 7.5 7.5 7.5zm0 0" fill="#34b9f5"/><path d="m256 249.296875c7.152344 0 13.9375-1.464844 20.023438-4.085937 6.386718-2.753907 4.441406-12.28125-2.515626-12.28125h-35.015624c-6.957032 0-8.902344 9.527343-2.515626 12.28125 6.085938 2.621093 12.871094 4.085937 20.023438 4.085937zm0 0" fill="#34b9f5"/><path d="m224.355469 263.679688c-2.726563-3.117188-7.464844-3.4375-10.585938-.710938-3.117187 2.726562-3.433593 7.464844-.710937 10.585938 6.007812 6.871093 14.863281 10.8125 24.292968 10.8125 6.804688 0 13.296876-2.058594 18.648438-5.78125 5.347656 3.722656 11.84375 5.78125 18.644531 5.78125 9.433594 0 18.285157-3.941407 24.292969-10.8125 2.726562-3.121094 2.410156-7.859376-.710938-10.585938-3.117187-2.726562-7.855468-2.40625-10.582031.710938-3.160156 3.617187-7.898437 5.6875-13 5.6875-5.105469 0-9.839843-2.070313-13-5.6875-2.929687-3.355469-8.363281-3.355469-11.292969 0-3.160156 3.613281-7.898437 5.6875-13 5.6875-5.105468 0-9.839843-2.070313-12.996093-5.6875zm0 0" fill="#34b9f5"/><path d="m102.953125 98.441406c-24.066406 20.882813-41.71875 46.554688-51.050781 74.246094-5.191406 15.398438-7.824219 31.378906-7.824219 47.496094 0 16.121094 2.632813 32.105468 7.824219 47.507812 12.277344 36.417969 39.054687 69.214844 75.398437 92.355469 37.246094 23.714844 81.75 36.25 128.699219 36.25 37.671875 0 74.695312-8.355469 107.066406-24.152344 3.722656-1.820312 5.269532-6.308593 3.453125-10.03125-1.816406-3.722656-6.308593-5.265625-10.03125-3.453125-30.335937 14.808594-65.085937 22.636719-100.488281 22.636719-80.664062 0-152.804688-40.632813-182.589844-100.800781.886719.324218 1.777344.636718 2.679688.945312 13.101562 4.441406 26.988281 6.574219 40.816406 6.574219h.09375c26.382812 0 54.066406-7.511719 74.105469-25.335937 13.4375-11.953126 20.722656-26.757813 20.722656-42.496094 0-10.058594-2.980469-19.734375-8.636719-28.527344-16.320312-25.378906-48-37.007812-76.953125-38.988281-17.5625-1.199219-36.066406 1.054687-52.800781 7.195312 9.164062-18.433593 22.535156-35.507812 39.347656-50.09375 18.976563-16.464843 60.761719-17.503906 81.289063-2.015625.019531.011719.035156.027344.054687.039063.707032.53125 15.753906 11.875 23.667969 17.84375 22.5 16.957031 53.921875 16.957031 76.410156-.003907l-.023437-.027343c1.757812-1.277344 6.882812-5.140625 23.742187-17.851563 20.53125-15.484375 62.316407-14.449218 81.289063 2.015625 16.8125 14.585938 30.183594 31.660157 39.347656 50.097657-.882812-.324219-2.953125-1.03125-3.09375-1.082032-15.890625-5.332031-33.007812-7.257812-49.707031-6.117187-20.011719 1.367187-40.167969 7.214843-56.777344 18.6875-18 12.433593-28.167969 29.097656-28.785156 47.085937-.714844 21.019532 12.054687 39.015625 28.785156 50.574219 17.738281 12.253906 41.179687 19 66.015625 19h.09375c14.769531 0 29.628906-2.421875 43.507812-7.523437-12.226562 24.742187-31.796874 46.59375-57.421874 63.917968-3.433594 2.320313-4.332032 6.980469-2.015626 10.414063 2.324219 3.429687 6.984376 4.332031 10.414063 2.011719 34.289063-23.183594 58.675781-54.007813 70.519531-89.144532 5.1875-15.402344 7.820313-31.382812 7.820313-47.503906s-2.632813-32.105469-7.820313-47.503906c-9.332031-27.6875-26.984375-53.359375-51.050781-74.242188-24.332031-21.113281-73.941406-22.433594-100.152344-2.664062-7.917969 5.972656-22.980469 17.328125-23.667969 17.84375-.015624.011718-.035156.023437-.050781.039062-16.902343 12.746094-41.441406 12.746094-58.351562 0-16.855469-12.710937-21.980469-16.574218-23.738281-17.851562l.019531-.027344c-26.207031-19.773438-75.8125-18.457031-100.152344 2.660156zm71.535156 85.253906c14.40625 9.953126 22.339844 22.910157 22.339844 36.488282 0 15.328125-10.265625 28.148437-22.339844 36.492187-15.253906 10.535157-35.671875 16.339844-57.488281 16.339844-17.597656 0-35.898438-3.808594-51.472656-12.589844-.089844-.050781-.175782-.105469-.265625-.160156-4.105469-13.039063-6.183594-26.507813-6.183594-40.082031 0-13.570313 2.078125-27.039063 6.183594-40.082032.089843-.050781.175781-.105468.265625-.15625 15.464844-8.742187 33.792968-12.589843 51.472656-12.589843 21.816406 0 42.234375 5.800781 57.488281 16.339843zm140.683594 36.488282c0-13.578125 7.933594-26.535156 22.339844-36.488282 15.253906-10.539062 35.671875-16.339843 57.488281-16.339843 17.910156 0 36.078125 3.855469 51.738281 12.746093 4.105469 13.039063 6.183594 26.511719 6.183594 40.082032 0 13.574218-2.078125 27.042968-6.183594 40.082031-.089843.054687-.175781.105469-.265625.160156-15.578125 8.785157-33.691406 12.589844-51.472656 12.589844-21.816406 0-42.234375-5.804687-57.488281-16.339844-11.902344-8.226562-22.339844-21.128906-22.339844-36.492187zm0 0" fill="#34b9f5"/></g><g transform="matrix(0.1171875 0 0 0.1171875 107.00000011718748 237)"><path d="m436.59375 64.097656c-48.292969-41.335937-112.429688-64.097656-180.59375-64.097656-57.578125 0-111.957031 16.046875-157.257812 46.410156-3.441407 2.308594-4.359376 6.964844-2.054688 10.40625s6.964844 4.359375 10.40625 2.054688c42.820312-28.699219 94.3125-43.871094 148.90625-43.871094 132.890625 0 241 92.046875 241 205.183594 0 113.140625-108.113281 205.1875-241 205.1875s-241-92.046875-241-205.1875c0-53.949219 24.433594-104.910156 68.800781-143.496094 3.125-2.71875 3.453125-7.457031.734375-10.582031s-7.457031-3.457031-10.582031-.738281c-47.6875 41.480468-73.953125 96.460937-73.953125 154.816406 0 59.039062 26.78125 114.472656 75.40625 156.089844 48.292969 41.332031 112.429688 64.097656 180.59375 64.097656s132.300781-22.765625 180.59375-64.097656c48.625-41.617188 75.40625-97.050782 75.40625-156.089844 0-59.035156-26.78125-114.46875-75.40625-156.085938zm0 0" fill="#34b9f5"/><path d="m142 233.757812c4.140625 0 7.5-3.359374 7.5-7.5v-16.003906c0-4.144531-3.359375-7.5-7.5-7.5s-7.5 3.355469-7.5 7.5v16.003906c0 4.140626 3.359375 7.5 7.5 7.5zm0 0" fill="#34b9f5"/><path d="m370 233.757812c4.140625 0 7.5-3.359374 7.5-7.5v-16.003906c0-4.144531-3.359375-7.5-7.5-7.5s-7.5 3.355469-7.5 7.5v16.003906c0 4.140626 3.359375 7.5 7.5 7.5zm0 0" fill="#34b9f5"/><path d="m256 249.296875c7.152344 0 13.9375-1.464844 20.023438-4.085937 6.386718-2.753907 4.441406-12.28125-2.515626-12.28125h-35.015624c-6.957032 0-8.902344 9.527343-2.515626 12.28125 6.085938 2.621093 12.871094 4.085937 20.023438 4.085937zm0 0" fill="#34b9f5"/><path d="m224.355469 263.679688c-2.726563-3.117188-7.464844-3.4375-10.585938-.710938-3.117187 2.726562-3.433593 7.464844-.710937 10.585938 6.007812 6.871093 14.863281 10.8125 24.292968 10.8125 6.804688 0 13.296876-2.058594 18.648438-5.78125 5.347656 3.722656 11.84375 5.78125 18.644531 5.78125 9.433594 0 18.285157-3.941407 24.292969-10.8125 2.726562-3.121094 2.410156-7.859376-.710938-10.585938-3.117187-2.726562-7.855468-2.40625-10.582031.710938-3.160156 3.617187-7.898437 5.6875-13 5.6875-5.105469 0-9.839843-2.070313-13-5.6875-2.929687-3.355469-8.363281-3.355469-11.292969 0-3.160156 3.613281-7.898437 5.6875-13 5.6875-5.105468 0-9.839843-2.070313-12.996093-5.6875zm0 0" fill="#34b9f5"/><path d="m102.953125 98.441406c-24.066406 20.882813-41.71875 46.554688-51.050781 74.246094-5.191406 15.398438-7.824219 31.378906-7.824219 47.496094 0 16.121094 2.632813 32.105468 7.824219 47.507812 12.277344 36.417969 39.054687 69.214844 75.398437 92.355469 37.246094 23.714844 81.75 36.25 128.699219 36.25 37.671875 0 74.695312-8.355469 107.066406-24.152344 3.722656-1.820312 5.269532-6.308593 3.453125-10.03125-1.816406-3.722656-6.308593-5.265625-10.03125-3.453125-30.335937 14.808594-65.085937 22.636719-100.488281 22.636719-80.664062 0-152.804688-40.632813-182.589844-100.800781.886719.324218 1.777344.636718 2.679688.945312 13.101562 4.441406 26.988281 6.574219 40.816406 6.574219h.09375c26.382812 0 54.066406-7.511719 74.105469-25.335937 13.4375-11.953126 20.722656-26.757813 20.722656-42.496094 0-10.058594-2.980469-19.734375-8.636719-28.527344-16.320312-25.378906-48-37.007812-76.953125-38.988281-17.5625-1.199219-36.066406 1.054687-52.800781 7.195312 9.164062-18.433593 22.535156-35.507812 39.347656-50.09375 18.976563-16.464843 60.761719-17.503906 81.289063-2.015625.019531.011719.035156.027344.054687.039063.707032.53125 15.753906 11.875 23.667969 17.84375 22.5 16.957031 53.921875 16.957031 76.410156-.003907l-.023437-.027343c1.757812-1.277344 6.882812-5.140625 23.742187-17.851563 20.53125-15.484375 62.316407-14.449218 81.289063 2.015625 16.8125 14.585938 30.183594 31.660157 39.347656 50.097657-.882812-.324219-2.953125-1.03125-3.09375-1.082032-15.890625-5.332031-33.007812-7.257812-49.707031-6.117187-20.011719 1.367187-40.167969 7.214843-56.777344 18.6875-18 12.433593-28.167969 29.097656-28.785156 47.085937-.714844 21.019532 12.054687 39.015625 28.785156 50.574219 17.738281 12.253906 41.179687 19 66.015625 19h.09375c14.769531 0 29.628906-2.421875 43.507812-7.523437-12.226562 24.742187-31.796874 46.59375-57.421874 63.917968-3.433594 2.320313-4.332032 6.980469-2.015626 10.414063 2.324219 3.429687 6.984376 4.332031 10.414063 2.011719 34.289063-23.183594 58.675781-54.007813 70.519531-89.144532 5.1875-15.402344 7.820313-31.382812 7.820313-47.503906s-2.632813-32.105469-7.820313-47.503906c-9.332031-27.6875-26.984375-53.359375-51.050781-74.242188-24.332031-21.113281-73.941406-22.433594-100.152344-2.664062-7.917969 5.972656-22.980469 17.328125-23.667969 17.84375-.015624.011718-.035156.023437-.050781.039062-16.902343 12.746094-41.441406 12.746094-58.351562 0-16.855469-12.710937-21.980469-16.574218-23.738281-17.851562l.019531-.027344c-26.207031-19.773438-75.8125-18.457031-100.152344 2.660156zm71.535156 85.253906c14.40625 9.953126 22.339844 22.910157 22.339844 36.488282 0 15.328125-10.265625 28.148437-22.339844 36.492187-15.253906 10.535157-35.671875 16.339844-57.488281 16.339844-17.597656 0-35.898438-3.808594-51.472656-12.589844-.089844-.050781-.175782-.105469-.265625-.160156-4.105469-13.039063-6.183594-26.507813-6.183594-40.082031 0-13.570313 2.078125-27.039063 6.183594-40.082032.089843-.050781.175781-.105468.265625-.15625 15.464844-8.742187 33.792968-12.589843 51.472656-12.589843 21.816406 0 42.234375 5.800781 57.488281 16.339843zm140.683594 36.488282c0-13.578125 7.933594-26.535156 22.339844-36.488282 15.253906-10.539062 35.671875-16.339843 57.488281-16.339843 17.910156 0 36.078125 3.855469 51.738281 12.746093 4.105469 13.039063 6.183594 26.511719 6.183594 40.082032 0 13.574218-2.078125 27.042968-6.183594 40.082031-.089843.054687-.175781.105469-.265625.160156-15.578125 8.785157-33.691406 12.589844-51.472656 12.589844-21.816406 0-42.234375-5.804687-57.488281-16.339844-11.902344-8.226562-22.339844-21.128906-22.339844-36.492187zm0 0" fill="#34b9f5"/></g><g transform="matrix(0.1171875 0 0 0.1171875 9.00000019042966 274)"><path d="m436.59375 64.097656c-48.292969-41.335937-112.429688-64.097656-180.59375-64.097656-57.578125 0-111.957031 16.046875-157.257812 46.410156-3.441407 2.308594-4.359376 6.964844-2.054688 10.40625s6.964844 4.359375 10.40625 2.054688c42.820312-28.699219 94.3125-43.871094 148.90625-43.871094 132.890625 0 241 92.046875 241 205.183594 0 113.140625-108.113281 205.1875-241 205.1875s-241-92.046875-241-205.1875c0-53.949219 24.433594-104.910156 68.800781-143.496094 3.125-2.71875 3.453125-7.457031.734375-10.582031s-7.457031-3.457031-10.582031-.738281c-47.6875 41.480468-73.953125 96.460937-73.953125 154.816406 0 59.039062 26.78125 114.472656 75.40625 156.089844 48.292969 41.332031 112.429688 64.097656 180.59375 64.097656s132.300781-22.765625 180.59375-64.097656c48.625-41.617188 75.40625-97.050782 75.40625-156.089844 0-59.035156-26.78125-114.46875-75.40625-156.085938zm0 0" fill="#34b9f5"/><path d="m142 233.757812c4.140625 0 7.5-3.359374 7.5-7.5v-16.003906c0-4.144531-3.359375-7.5-7.5-7.5s-7.5 3.355469-7.5 7.5v16.003906c0 4.140626 3.359375 7.5 7.5 7.5zm0 0" fill="#34b9f5"/><path d="m370 233.757812c4.140625 0 7.5-3.359374 7.5-7.5v-16.003906c0-4.144531-3.359375-7.5-7.5-7.5s-7.5 3.355469-7.5 7.5v16.003906c0 4.140626 3.359375 7.5 7.5 7.5zm0 0" fill="#34b9f5"/><path d="m256 249.296875c7.152344 0 13.9375-1.464844 20.023438-4.085937 6.386718-2.753907 4.441406-12.28125-2.515626-12.28125h-35.015624c-6.957032 0-8.902344 9.527343-2.515626 12.28125 6.085938 2.621093 12.871094 4.085937 20.023438 4.085937zm0 0" fill="#34b9f5"/><path d="m224.355469 263.679688c-2.726563-3.117188-7.464844-3.4375-10.585938-.710938-3.117187 2.726562-3.433593 7.464844-.710937 10.585938 6.007812 6.871093 14.863281 10.8125 24.292968 10.8125 6.804688 0 13.296876-2.058594 18.648438-5.78125 5.347656 3.722656 11.84375 5.78125 18.644531 5.78125 9.433594 0 18.285157-3.941407 24.292969-10.8125 2.726562-3.121094 2.410156-7.859376-.710938-10.585938-3.117187-2.726562-7.855468-2.40625-10.582031.710938-3.160156 3.617187-7.898437 5.6875-13 5.6875-5.105469 0-9.839843-2.070313-13-5.6875-2.929687-3.355469-8.363281-3.355469-11.292969 0-3.160156 3.613281-7.898437 5.6875-13 5.6875-5.105468 0-9.839843-2.070313-12.996093-5.6875zm0 0" fill="#34b9f5"/><path d="m102.953125 98.441406c-24.066406 20.882813-41.71875 46.554688-51.050781 74.246094-5.191406 15.398438-7.824219 31.378906-7.824219 47.496094 0 16.121094 2.632813 32.105468 7.824219 47.507812 12.277344 36.417969 39.054687 69.214844 75.398437 92.355469 37.246094 23.714844 81.75 36.25 128.699219 36.25 37.671875 0 74.695312-8.355469 107.066406-24.152344 3.722656-1.820312 5.269532-6.308593 3.453125-10.03125-1.816406-3.722656-6.308593-5.265625-10.03125-3.453125-30.335937 14.808594-65.085937 22.636719-100.488281 22.636719-80.664062 0-152.804688-40.632813-182.589844-100.800781.886719.324218 1.777344.636718 2.679688.945312 13.101562 4.441406 26.988281 6.574219 40.816406 6.574219h.09375c26.382812 0 54.066406-7.511719 74.105469-25.335937 13.4375-11.953126 20.722656-26.757813 20.722656-42.496094 0-10.058594-2.980469-19.734375-8.636719-28.527344-16.320312-25.378906-48-37.007812-76.953125-38.988281-17.5625-1.199219-36.066406 1.054687-52.800781 7.195312 9.164062-18.433593 22.535156-35.507812 39.347656-50.09375 18.976563-16.464843 60.761719-17.503906 81.289063-2.015625.019531.011719.035156.027344.054687.039063.707032.53125 15.753906 11.875 23.667969 17.84375 22.5 16.957031 53.921875 16.957031 76.410156-.003907l-.023437-.027343c1.757812-1.277344 6.882812-5.140625 23.742187-17.851563 20.53125-15.484375 62.316407-14.449218 81.289063 2.015625 16.8125 14.585938 30.183594 31.660157 39.347656 50.097657-.882812-.324219-2.953125-1.03125-3.09375-1.082032-15.890625-5.332031-33.007812-7.257812-49.707031-6.117187-20.011719 1.367187-40.167969 7.214843-56.777344 18.6875-18 12.433593-28.167969 29.097656-28.785156 47.085937-.714844 21.019532 12.054687 39.015625 28.785156 50.574219 17.738281 12.253906 41.179687 19 66.015625 19h.09375c14.769531 0 29.628906-2.421875 43.507812-7.523437-12.226562 24.742187-31.796874 46.59375-57.421874 63.917968-3.433594 2.320313-4.332032 6.980469-2.015626 10.414063 2.324219 3.429687 6.984376 4.332031 10.414063 2.011719 34.289063-23.183594 58.675781-54.007813 70.519531-89.144532 5.1875-15.402344 7.820313-31.382812 7.820313-47.503906s-2.632813-32.105469-7.820313-47.503906c-9.332031-27.6875-26.984375-53.359375-51.050781-74.242188-24.332031-21.113281-73.941406-22.433594-100.152344-2.664062-7.917969 5.972656-22.980469 17.328125-23.667969 17.84375-.015624.011718-.035156.023437-.050781.039062-16.902343 12.746094-41.441406 12.746094-58.351562 0-16.855469-12.710937-21.980469-16.574218-23.738281-17.851562l.019531-.027344c-26.207031-19.773438-75.8125-18.457031-100.152344 2.660156zm71.535156 85.253906c14.40625 9.953126 22.339844 22.910157 22.339844 36.488282 0 15.328125-10.265625 28.148437-22.339844 36.492187-15.253906 10.535157-35.671875 16.339844-57.488281 16.339844-17.597656 0-35.898438-3.808594-51.472656-12.589844-.089844-.050781-.175782-.105469-.265625-.160156-4.105469-13.039063-6.183594-26.507813-6.183594-40.082031 0-13.570313 2.078125-27.039063 6.183594-40.082032.089843-.050781.175781-.105468.265625-.15625 15.464844-8.742187 33.792968-12.589843 51.472656-12.589843 21.816406 0 42.234375 5.800781 57.488281 16.339843zm140.683594 36.488282c0-13.578125 7.933594-26.535156 22.339844-36.488282 15.253906-10.539062 35.671875-16.339843 57.488281-16.339843 17.910156 0 36.078125 3.855469 51.738281 12.746093 4.105469 13.039063 6.183594 26.511719 6.183594 40.082032 0 13.574218-2.078125 27.042968-6.183594 40.082031-.089843.054687-.175781.105469-.265625.160156-15.578125 8.785157-33.691406 12.589844-51.472656 12.589844-21.816406 0-42.234375-5.804687-57.488281-16.339844-11.902344-8.226562-22.339844-21.128906-22.339844-36.492187zm0 0" fill="#34b9f5"/></g><g transform="matrix(0.1171875 0 0 0.1171875 258.00000014648435 80)"><path d="m436.59375 64.097656c-48.292969-41.335937-112.429688-64.097656-180.59375-64.097656-57.578125 0-111.957031 16.046875-157.257812 46.410156-3.441407 2.308594-4.359376 6.964844-2.054688 10.40625s6.964844 4.359375 10.40625 2.054688c42.820312-28.699219 94.3125-43.871094 148.90625-43.871094 132.890625 0 241 92.046875 241 205.183594 0 113.140625-108.113281 205.1875-241 205.1875s-241-92.046875-241-205.1875c0-53.949219 24.433594-104.910156 68.800781-143.496094 3.125-2.71875 3.453125-7.457031.734375-10.582031s-7.457031-3.457031-10.582031-.738281c-47.6875 41.480468-73.953125 96.460937-73.953125 154.816406 0 59.039062 26.78125 114.472656 75.40625 156.089844 48.292969 41.332031 112.429688 64.097656 180.59375 64.097656s132.300781-22.765625 180.59375-64.097656c48.625-41.617188 75.40625-97.050782 75.40625-156.089844 0-59.035156-26.78125-114.46875-75.40625-156.085938zm0 0" fill="#34b9f5"/><path d="m142 233.757812c4.140625 0 7.5-3.359374 7.5-7.5v-16.003906c0-4.144531-3.359375-7.5-7.5-7.5s-7.5 3.355469-7.5 7.5v16.003906c0 4.140626 3.359375 7.5 7.5 7.5zm0 0" fill="#34b9f5"/><path d="m370 233.757812c4.140625 0 7.5-3.359374 7.5-7.5v-16.003906c0-4.144531-3.359375-7.5-7.5-7.5s-7.5 3.355469-7.5 7.5v16.003906c0 4.140626 3.359375 7.5 7.5 7.5zm0 0" fill="#34b9f5"/><path d="m256 249.296875c7.152344 0 13.9375-1.464844 20.023438-4.085937 6.386718-2.753907 4.441406-12.28125-2.515626-12.28125h-35.015624c-6.957032 0-8.902344 9.527343-2.515626 12.28125 6.085938 2.621093 12.871094 4.085937 20.023438 4.085937zm0 0" fill="#34b9f5"/><path d="m224.355469 263.679688c-2.726563-3.117188-7.464844-3.4375-10.585938-.710938-3.117187 2.726562-3.433593 7.464844-.710937 10.585938 6.007812 6.871093 14.863281 10.8125 24.292968 10.8125 6.804688 0 13.296876-2.058594 18.648438-5.78125 5.347656 3.722656 11.84375 5.78125 18.644531 5.78125 9.433594 0 18.285157-3.941407 24.292969-10.8125 2.726562-3.121094 2.410156-7.859376-.710938-10.585938-3.117187-2.726562-7.855468-2.40625-10.582031.710938-3.160156 3.617187-7.898437 5.6875-13 5.6875-5.105469 0-9.839843-2.070313-13-5.6875-2.929687-3.355469-8.363281-3.355469-11.292969 0-3.160156 3.613281-7.898437 5.6875-13 5.6875-5.105468 0-9.839843-2.070313-12.996093-5.6875zm0 0" fill="#34b9f5"/><path d="m102.953125 98.441406c-24.066406 20.882813-41.71875 46.554688-51.050781 74.246094-5.191406 15.398438-7.824219 31.378906-7.824219 47.496094 0 16.121094 2.632813 32.105468 7.824219 47.507812 12.277344 36.417969 39.054687 69.214844 75.398437 92.355469 37.246094 23.714844 81.75 36.25 128.699219 36.25 37.671875 0 74.695312-8.355469 107.066406-24.152344 3.722656-1.820312 5.269532-6.308593 3.453125-10.03125-1.816406-3.722656-6.308593-5.265625-10.03125-3.453125-30.335937 14.808594-65.085937 22.636719-100.488281 22.636719-80.664062 0-152.804688-40.632813-182.589844-100.800781.886719.324218 1.777344.636718 2.679688.945312 13.101562 4.441406 26.988281 6.574219 40.816406 6.574219h.09375c26.382812 0 54.066406-7.511719 74.105469-25.335937 13.4375-11.953126 20.722656-26.757813 20.722656-42.496094 0-10.058594-2.980469-19.734375-8.636719-28.527344-16.320312-25.378906-48-37.007812-76.953125-38.988281-17.5625-1.199219-36.066406 1.054687-52.800781 7.195312 9.164062-18.433593 22.535156-35.507812 39.347656-50.09375 18.976563-16.464843 60.761719-17.503906 81.289063-2.015625.019531.011719.035156.027344.054687.039063.707032.53125 15.753906 11.875 23.667969 17.84375 22.5 16.957031 53.921875 16.957031 76.410156-.003907l-.023437-.027343c1.757812-1.277344 6.882812-5.140625 23.742187-17.851563 20.53125-15.484375 62.316407-14.449218 81.289063 2.015625 16.8125 14.585938 30.183594 31.660157 39.347656 50.097657-.882812-.324219-2.953125-1.03125-3.09375-1.082032-15.890625-5.332031-33.007812-7.257812-49.707031-6.117187-20.011719 1.367187-40.167969 7.214843-56.777344 18.6875-18 12.433593-28.167969 29.097656-28.785156 47.085937-.714844 21.019532 12.054687 39.015625 28.785156 50.574219 17.738281 12.253906 41.179687 19 66.015625 19h.09375c14.769531 0 29.628906-2.421875 43.507812-7.523437-12.226562 24.742187-31.796874 46.59375-57.421874 63.917968-3.433594 2.320313-4.332032 6.980469-2.015626 10.414063 2.324219 3.429687 6.984376 4.332031 10.414063 2.011719 34.289063-23.183594 58.675781-54.007813 70.519531-89.144532 5.1875-15.402344 7.820313-31.382812 7.820313-47.503906s-2.632813-32.105469-7.820313-47.503906c-9.332031-27.6875-26.984375-53.359375-51.050781-74.242188-24.332031-21.113281-73.941406-22.433594-100.152344-2.664062-7.917969 5.972656-22.980469 17.328125-23.667969 17.84375-.015624.011718-.035156.023437-.050781.039062-16.902343 12.746094-41.441406 12.746094-58.351562 0-16.855469-12.710937-21.980469-16.574218-23.738281-17.851562l.019531-.027344c-26.207031-19.773438-75.8125-18.457031-100.152344 2.660156zm71.535156 85.253906c14.40625 9.953126 22.339844 22.910157 22.339844 36.488282 0 15.328125-10.265625 28.148437-22.339844 36.492187-15.253906 10.535157-35.671875 16.339844-57.488281 16.339844-17.597656 0-35.898438-3.808594-51.472656-12.589844-.089844-.050781-.175782-.105469-.265625-.160156-4.105469-13.039063-6.183594-26.507813-6.183594-40.082031 0-13.570313 2.078125-27.039063 6.183594-40.082032.089843-.050781.175781-.105468.265625-.15625 15.464844-8.742187 33.792968-12.589843 51.472656-12.589843 21.816406 0 42.234375 5.800781 57.488281 16.339843zm140.683594 36.488282c0-13.578125 7.933594-26.535156 22.339844-36.488282 15.253906-10.539062 35.671875-16.339843 57.488281-16.339843 17.910156 0 36.078125 3.855469 51.738281 12.746093 4.105469 13.039063 6.183594 26.511719 6.183594 40.082032 0 13.574218-2.078125 27.042968-6.183594 40.082031-.089843.054687-.175781.105469-.265625.160156-15.578125 8.785157-33.691406 12.589844-51.472656 12.589844-21.816406 0-42.234375-5.804687-57.488281-16.339844-11.902344-8.226562-22.339844-21.128906-22.339844-36.492187zm0 0" fill="#34b9f5"/></g><g transform="matrix(0.1171875 0 0 0.1171875 259.0000000878906 2)"><path d="m436.59375 64.097656c-48.292969-41.335937-112.429688-64.097656-180.59375-64.097656-57.578125 0-111.957031 16.046875-157.257812 46.410156-3.441407 2.308594-4.359376 6.964844-2.054688 10.40625s6.964844 4.359375 10.40625 2.054688c42.820312-28.699219 94.3125-43.871094 148.90625-43.871094 132.890625 0 241 92.046875 241 205.183594 0 113.140625-108.113281 205.1875-241 205.1875s-241-92.046875-241-205.1875c0-53.949219 24.433594-104.910156 68.800781-143.496094 3.125-2.71875 3.453125-7.457031.734375-10.582031s-7.457031-3.457031-10.582031-.738281c-47.6875 41.480468-73.953125 96.460937-73.953125 154.816406 0 59.039062 26.78125 114.472656 75.40625 156.089844 48.292969 41.332031 112.429688 64.097656 180.59375 64.097656s132.300781-22.765625 180.59375-64.097656c48.625-41.617188 75.40625-97.050782 75.40625-156.089844 0-59.035156-26.78125-114.46875-75.40625-156.085938zm0 0" fill="#34b9f5"/><path d="m142 233.757812c4.140625 0 7.5-3.359374 7.5-7.5v-16.003906c0-4.144531-3.359375-7.5-7.5-7.5s-7.5 3.355469-7.5 7.5v16.003906c0 4.140626 3.359375 7.5 7.5 7.5zm0 0" fill="#34b9f5"/><path d="m370 233.757812c4.140625 0 7.5-3.359374 7.5-7.5v-16.003906c0-4.144531-3.359375-7.5-7.5-7.5s-7.5 3.355469-7.5 7.5v16.003906c0 4.140626 3.359375 7.5 7.5 7.5zm0 0" fill="#34b9f5"/><path d="m256 249.296875c7.152344 0 13.9375-1.464844 20.023438-4.085937 6.386718-2.753907 4.441406-12.28125-2.515626-12.28125h-35.015624c-6.957032 0-8.902344 9.527343-2.515626 12.28125 6.085938 2.621093 12.871094 4.085937 20.023438 4.085937zm0 0" fill="#34b9f5"/><path d="m224.355469 263.679688c-2.726563-3.117188-7.464844-3.4375-10.585938-.710938-3.117187 2.726562-3.433593 7.464844-.710937 10.585938 6.007812 6.871093 14.863281 10.8125 24.292968 10.8125 6.804688 0 13.296876-2.058594 18.648438-5.78125 5.347656 3.722656 11.84375 5.78125 18.644531 5.78125 9.433594 0 18.285157-3.941407 24.292969-10.8125 2.726562-3.121094 2.410156-7.859376-.710938-10.585938-3.117187-2.726562-7.855468-2.40625-10.582031.710938-3.160156 3.617187-7.898437 5.6875-13 5.6875-5.105469 0-9.839843-2.070313-13-5.6875-2.929687-3.355469-8.363281-3.355469-11.292969 0-3.160156 3.613281-7.898437 5.6875-13 5.6875-5.105468 0-9.839843-2.070313-12.996093-5.6875zm0 0" fill="#34b9f5"/><path d="m102.953125 98.441406c-24.066406 20.882813-41.71875 46.554688-51.050781 74.246094-5.191406 15.398438-7.824219 31.378906-7.824219 47.496094 0 16.121094 2.632813 32.105468 7.824219 47.507812 12.277344 36.417969 39.054687 69.214844 75.398437 92.355469 37.246094 23.714844 81.75 36.25 128.699219 36.25 37.671875 0 74.695312-8.355469 107.066406-24.152344 3.722656-1.820312 5.269532-6.308593 3.453125-10.03125-1.816406-3.722656-6.308593-5.265625-10.03125-3.453125-30.335937 14.808594-65.085937 22.636719-100.488281 22.636719-80.664062 0-152.804688-40.632813-182.589844-100.800781.886719.324218 1.777344.636718 2.679688.945312 13.101562 4.441406 26.988281 6.574219 40.816406 6.574219h.09375c26.382812 0 54.066406-7.511719 74.105469-25.335937 13.4375-11.953126 20.722656-26.757813 20.722656-42.496094 0-10.058594-2.980469-19.734375-8.636719-28.527344-16.320312-25.378906-48-37.007812-76.953125-38.988281-17.5625-1.199219-36.066406 1.054687-52.800781 7.195312 9.164062-18.433593 22.535156-35.507812 39.347656-50.09375 18.976563-16.464843 60.761719-17.503906 81.289063-2.015625.019531.011719.035156.027344.054687.039063.707032.53125 15.753906 11.875 23.667969 17.84375 22.5 16.957031 53.921875 16.957031 76.410156-.003907l-.023437-.027343c1.757812-1.277344 6.882812-5.140625 23.742187-17.851563 20.53125-15.484375 62.316407-14.449218 81.289063 2.015625 16.8125 14.585938 30.183594 31.660157 39.347656 50.097657-.882812-.324219-2.953125-1.03125-3.09375-1.082032-15.890625-5.332031-33.007812-7.257812-49.707031-6.117187-20.011719 1.367187-40.167969 7.214843-56.777344 18.6875-18 12.433593-28.167969 29.097656-28.785156 47.085937-.714844 21.019532 12.054687 39.015625 28.785156 50.574219 17.738281 12.253906 41.179687 19 66.015625 19h.09375c14.769531 0 29.628906-2.421875 43.507812-7.523437-12.226562 24.742187-31.796874 46.59375-57.421874 63.917968-3.433594 2.320313-4.332032 6.980469-2.015626 10.414063 2.324219 3.429687 6.984376 4.332031 10.414063 2.011719 34.289063-23.183594 58.675781-54.007813 70.519531-89.144532 5.1875-15.402344 7.820313-31.382812 7.820313-47.503906s-2.632813-32.105469-7.820313-47.503906c-9.332031-27.6875-26.984375-53.359375-51.050781-74.242188-24.332031-21.113281-73.941406-22.433594-100.152344-2.664062-7.917969 5.972656-22.980469 17.328125-23.667969 17.84375-.015624.011718-.035156.023437-.050781.039062-16.902343 12.746094-41.441406 12.746094-58.351562 0-16.855469-12.710937-21.980469-16.574218-23.738281-17.851562l.019531-.027344c-26.207031-19.773438-75.8125-18.457031-100.152344 2.660156zm71.535156 85.253906c14.40625 9.953126 22.339844 22.910157 22.339844 36.488282 0 15.328125-10.265625 28.148437-22.339844 36.492187-15.253906 10.535157-35.671875 16.339844-57.488281 16.339844-17.597656 0-35.898438-3.808594-51.472656-12.589844-.089844-.050781-.175782-.105469-.265625-.160156-4.105469-13.039063-6.183594-26.507813-6.183594-40.082031 0-13.570313 2.078125-27.039063 6.183594-40.082032.089843-.050781.175781-.105468.265625-.15625 15.464844-8.742187 33.792968-12.589843 51.472656-12.589843 21.816406 0 42.234375 5.800781 57.488281 16.339843zm140.683594 36.488282c0-13.578125 7.933594-26.535156 22.339844-36.488282 15.253906-10.539062 35.671875-16.339843 57.488281-16.339843 17.910156 0 36.078125 3.855469 51.738281 12.746093 4.105469 13.039063 6.183594 26.511719 6.183594 40.082032 0 13.574218-2.078125 27.042968-6.183594 40.082031-.089843.054687-.175781.105469-.265625.160156-15.578125 8.785157-33.691406 12.589844-51.472656 12.589844-21.816406 0-42.234375-5.804687-57.488281-16.339844-11.902344-8.226562-22.339844-21.128906-22.339844-36.492187zm0 0" fill="#34b9f5"/></g><g transform="matrix(0.1171875 0 0 0.1171875 238.00000010253905 217)"><path d="m436.59375 64.097656c-48.292969-41.335937-112.429688-64.097656-180.59375-64.097656-57.578125 0-111.957031 16.046875-157.257812 46.410156-3.441407 2.308594-4.359376 6.964844-2.054688 10.40625s6.964844 4.359375 10.40625 2.054688c42.820312-28.699219 94.3125-43.871094 148.90625-43.871094 132.890625 0 241 92.046875 241 205.183594 0 113.140625-108.113281 205.1875-241 205.1875s-241-92.046875-241-205.1875c0-53.949219 24.433594-104.910156 68.800781-143.496094 3.125-2.71875 3.453125-7.457031.734375-10.582031s-7.457031-3.457031-10.582031-.738281c-47.6875 41.480468-73.953125 96.460937-73.953125 154.816406 0 59.039062 26.78125 114.472656 75.40625 156.089844 48.292969 41.332031 112.429688 64.097656 180.59375 64.097656s132.300781-22.765625 180.59375-64.097656c48.625-41.617188 75.40625-97.050782 75.40625-156.089844 0-59.035156-26.78125-114.46875-75.40625-156.085938zm0 0" fill="#34b9f5"/><path d="m142 233.757812c4.140625 0 7.5-3.359374 7.5-7.5v-16.003906c0-4.144531-3.359375-7.5-7.5-7.5s-7.5 3.355469-7.5 7.5v16.003906c0 4.140626 3.359375 7.5 7.5 7.5zm0 0" fill="#34b9f5"/><path d="m370 233.757812c4.140625 0 7.5-3.359374 7.5-7.5v-16.003906c0-4.144531-3.359375-7.5-7.5-7.5s-7.5 3.355469-7.5 7.5v16.003906c0 4.140626 3.359375 7.5 7.5 7.5zm0 0" fill="#34b9f5"/><path d="m256 249.296875c7.152344 0 13.9375-1.464844 20.023438-4.085937 6.386718-2.753907 4.441406-12.28125-2.515626-12.28125h-35.015624c-6.957032 0-8.902344 9.527343-2.515626 12.28125 6.085938 2.621093 12.871094 4.085937 20.023438 4.085937zm0 0" fill="#34b9f5"/><path d="m224.355469 263.679688c-2.726563-3.117188-7.464844-3.4375-10.585938-.710938-3.117187 2.726562-3.433593 7.464844-.710937 10.585938 6.007812 6.871093 14.863281 10.8125 24.292968 10.8125 6.804688 0 13.296876-2.058594 18.648438-5.78125 5.347656 3.722656 11.84375 5.78125 18.644531 5.78125 9.433594 0 18.285157-3.941407 24.292969-10.8125 2.726562-3.121094 2.410156-7.859376-.710938-10.585938-3.117187-2.726562-7.855468-2.40625-10.582031.710938-3.160156 3.617187-7.898437 5.6875-13 5.6875-5.105469 0-9.839843-2.070313-13-5.6875-2.929687-3.355469-8.363281-3.355469-11.292969 0-3.160156 3.613281-7.898437 5.6875-13 5.6875-5.105468 0-9.839843-2.070313-12.996093-5.6875zm0 0" fill="#34b9f5"/><path d="m102.953125 98.441406c-24.066406 20.882813-41.71875 46.554688-51.050781 74.246094-5.191406 15.398438-7.824219 31.378906-7.824219 47.496094 0 16.121094 2.632813 32.105468 7.824219 47.507812 12.277344 36.417969 39.054687 69.214844 75.398437 92.355469 37.246094 23.714844 81.75 36.25 128.699219 36.25 37.671875 0 74.695312-8.355469 107.066406-24.152344 3.722656-1.820312 5.269532-6.308593 3.453125-10.03125-1.816406-3.722656-6.308593-5.265625-10.03125-3.453125-30.335937 14.808594-65.085937 22.636719-100.488281 22.636719-80.664062 0-152.804688-40.632813-182.589844-100.800781.886719.324218 1.777344.636718 2.679688.945312 13.101562 4.441406 26.988281 6.574219 40.816406 6.574219h.09375c26.382812 0 54.066406-7.511719 74.105469-25.335937 13.4375-11.953126 20.722656-26.757813 20.722656-42.496094 0-10.058594-2.980469-19.734375-8.636719-28.527344-16.320312-25.378906-48-37.007812-76.953125-38.988281-17.5625-1.199219-36.066406 1.054687-52.800781 7.195312 9.164062-18.433593 22.535156-35.507812 39.347656-50.09375 18.976563-16.464843 60.761719-17.503906 81.289063-2.015625.019531.011719.035156.027344.054687.039063.707032.53125 15.753906 11.875 23.667969 17.84375 22.5 16.957031 53.921875 16.957031 76.410156-.003907l-.023437-.027343c1.757812-1.277344 6.882812-5.140625 23.742187-17.851563 20.53125-15.484375 62.316407-14.449218 81.289063 2.015625 16.8125 14.585938 30.183594 31.660157 39.347656 50.097657-.882812-.324219-2.953125-1.03125-3.09375-1.082032-15.890625-5.332031-33.007812-7.257812-49.707031-6.117187-20.011719 1.367187-40.167969 7.214843-56.777344 18.6875-18 12.433593-28.167969 29.097656-28.785156 47.085937-.714844 21.019532 12.054687 39.015625 28.785156 50.574219 17.738281 12.253906 41.179687 19 66.015625 19h.09375c14.769531 0 29.628906-2.421875 43.507812-7.523437-12.226562 24.742187-31.796874 46.59375-57.421874 63.917968-3.433594 2.320313-4.332032 6.980469-2.015626 10.414063 2.324219 3.429687 6.984376 4.332031 10.414063 2.011719 34.289063-23.183594 58.675781-54.007813 70.519531-89.144532 5.1875-15.402344 7.820313-31.382812 7.820313-47.503906s-2.632813-32.105469-7.820313-47.503906c-9.332031-27.6875-26.984375-53.359375-51.050781-74.242188-24.332031-21.113281-73.941406-22.433594-100.152344-2.664062-7.917969 5.972656-22.980469 17.328125-23.667969 17.84375-.015624.011718-.035156.023437-.050781.039062-16.902343 12.746094-41.441406 12.746094-58.351562 0-16.855469-12.710937-21.980469-16.574218-23.738281-17.851562l.019531-.027344c-26.207031-19.773438-75.8125-18.457031-100.152344 2.660156zm71.535156 85.253906c14.40625 9.953126 22.339844 22.910157 22.339844 36.488282 0 15.328125-10.265625 28.148437-22.339844 36.492187-15.253906 10.535157-35.671875 16.339844-57.488281 16.339844-17.597656 0-35.898438-3.808594-51.472656-12.589844-.089844-.050781-.175782-.105469-.265625-.160156-4.105469-13.039063-6.183594-26.507813-6.183594-40.082031 0-13.570313 2.078125-27.039063 6.183594-40.082032.089843-.050781.175781-.105468.265625-.15625 15.464844-8.742187 33.792968-12.589843 51.472656-12.589843 21.816406 0 42.234375 5.800781 57.488281 16.339843zm140.683594 36.488282c0-13.578125 7.933594-26.535156 22.339844-36.488282 15.253906-10.539062 35.671875-16.339843 57.488281-16.339843 17.910156 0 36.078125 3.855469 51.738281 12.746093 4.105469 13.039063 6.183594 26.511719 6.183594 40.082032 0 13.574218-2.078125 27.042968-6.183594 40.082031-.089843.054687-.175781.105469-.265625.160156-15.578125 8.785157-33.691406 12.589844-51.472656 12.589844-21.816406 0-42.234375-5.804687-57.488281-16.339844-11.902344-8.226562-22.339844-21.128906-22.339844-36.492187zm0 0" fill="#34b9f5"/></g><g transform="matrix(0.1171875 0 0 0.1171875 44.00000011718748 199)"><path d="m436.59375 64.097656c-48.292969-41.335937-112.429688-64.097656-180.59375-64.097656-57.578125 0-111.957031 16.046875-157.257812 46.410156-3.441407 2.308594-4.359376 6.964844-2.054688 10.40625s6.964844 4.359375 10.40625 2.054688c42.820312-28.699219 94.3125-43.871094 148.90625-43.871094 132.890625 0 241 92.046875 241 205.183594 0 113.140625-108.113281 205.1875-241 205.1875s-241-92.046875-241-205.1875c0-53.949219 24.433594-104.910156 68.800781-143.496094 3.125-2.71875 3.453125-7.457031.734375-10.582031s-7.457031-3.457031-10.582031-.738281c-47.6875 41.480468-73.953125 96.460937-73.953125 154.816406 0 59.039062 26.78125 114.472656 75.40625 156.089844 48.292969 41.332031 112.429688 64.097656 180.59375 64.097656s132.300781-22.765625 180.59375-64.097656c48.625-41.617188 75.40625-97.050782 75.40625-156.089844 0-59.035156-26.78125-114.46875-75.40625-156.085938zm0 0" fill="#34b9f5"/><path d="m142 233.757812c4.140625 0 7.5-3.359374 7.5-7.5v-16.003906c0-4.144531-3.359375-7.5-7.5-7.5s-7.5 3.355469-7.5 7.5v16.003906c0 4.140626 3.359375 7.5 7.5 7.5zm0 0" fill="#34b9f5"/><path d="m370 233.757812c4.140625 0 7.5-3.359374 7.5-7.5v-16.003906c0-4.144531-3.359375-7.5-7.5-7.5s-7.5 3.355469-7.5 7.5v16.003906c0 4.140626 3.359375 7.5 7.5 7.5zm0 0" fill="#34b9f5"/><path d="m256 249.296875c7.152344 0 13.9375-1.464844 20.023438-4.085937 6.386718-2.753907 4.441406-12.28125-2.515626-12.28125h-35.015624c-6.957032 0-8.902344 9.527343-2.515626 12.28125 6.085938 2.621093 12.871094 4.085937 20.023438 4.085937zm0 0" fill="#34b9f5"/><path d="m224.355469 263.679688c-2.726563-3.117188-7.464844-3.4375-10.585938-.710938-3.117187 2.726562-3.433593 7.464844-.710937 10.585938 6.007812 6.871093 14.863281 10.8125 24.292968 10.8125 6.804688 0 13.296876-2.058594 18.648438-5.78125 5.347656 3.722656 11.84375 5.78125 18.644531 5.78125 9.433594 0 18.285157-3.941407 24.292969-10.8125 2.726562-3.121094 2.410156-7.859376-.710938-10.585938-3.117187-2.726562-7.855468-2.40625-10.582031.710938-3.160156 3.617187-7.898437 5.6875-13 5.6875-5.105469 0-9.839843-2.070313-13-5.6875-2.929687-3.355469-8.363281-3.355469-11.292969 0-3.160156 3.613281-7.898437 5.6875-13 5.6875-5.105468 0-9.839843-2.070313-12.996093-5.6875zm0 0" fill="#34b9f5"/><path d="m102.953125 98.441406c-24.066406 20.882813-41.71875 46.554688-51.050781 74.246094-5.191406 15.398438-7.824219 31.378906-7.824219 47.496094 0 16.121094 2.632813 32.105468 7.824219 47.507812 12.277344 36.417969 39.054687 69.214844 75.398437 92.355469 37.246094 23.714844 81.75 36.25 128.699219 36.25 37.671875 0 74.695312-8.355469 107.066406-24.152344 3.722656-1.820312 5.269532-6.308593 3.453125-10.03125-1.816406-3.722656-6.308593-5.265625-10.03125-3.453125-30.335937 14.808594-65.085937 22.636719-100.488281 22.636719-80.664062 0-152.804688-40.632813-182.589844-100.800781.886719.324218 1.777344.636718 2.679688.945312 13.101562 4.441406 26.988281 6.574219 40.816406 6.574219h.09375c26.382812 0 54.066406-7.511719 74.105469-25.335937 13.4375-11.953126 20.722656-26.757813 20.722656-42.496094 0-10.058594-2.980469-19.734375-8.636719-28.527344-16.320312-25.378906-48-37.007812-76.953125-38.988281-17.5625-1.199219-36.066406 1.054687-52.800781 7.195312 9.164062-18.433593 22.535156-35.507812 39.347656-50.09375 18.976563-16.464843 60.761719-17.503906 81.289063-2.015625.019531.011719.035156.027344.054687.039063.707032.53125 15.753906 11.875 23.667969 17.84375 22.5 16.957031 53.921875 16.957031 76.410156-.003907l-.023437-.027343c1.757812-1.277344 6.882812-5.140625 23.742187-17.851563 20.53125-15.484375 62.316407-14.449218 81.289063 2.015625 16.8125 14.585938 30.183594 31.660157 39.347656 50.097657-.882812-.324219-2.953125-1.03125-3.09375-1.082032-15.890625-5.332031-33.007812-7.257812-49.707031-6.117187-20.011719 1.367187-40.167969 7.214843-56.777344 18.6875-18 12.433593-28.167969 29.097656-28.785156 47.085937-.714844 21.019532 12.054687 39.015625 28.785156 50.574219 17.738281 12.253906 41.179687 19 66.015625 19h.09375c14.769531 0 29.628906-2.421875 43.507812-7.523437-12.226562 24.742187-31.796874 46.59375-57.421874 63.917968-3.433594 2.320313-4.332032 6.980469-2.015626 10.414063 2.324219 3.429687 6.984376 4.332031 10.414063 2.011719 34.289063-23.183594 58.675781-54.007813 70.519531-89.144532 5.1875-15.402344 7.820313-31.382812 7.820313-47.503906s-2.632813-32.105469-7.820313-47.503906c-9.332031-27.6875-26.984375-53.359375-51.050781-74.242188-24.332031-21.113281-73.941406-22.433594-100.152344-2.664062-7.917969 5.972656-22.980469 17.328125-23.667969 17.84375-.015624.011718-.035156.023437-.050781.039062-16.902343 12.746094-41.441406 12.746094-58.351562 0-16.855469-12.710937-21.980469-16.574218-23.738281-17.851562l.019531-.027344c-26.207031-19.773438-75.8125-18.457031-100.152344 2.660156zm71.535156 85.253906c14.40625 9.953126 22.339844 22.910157 22.339844 36.488282 0 15.328125-10.265625 28.148437-22.339844 36.492187-15.253906 10.535157-35.671875 16.339844-57.488281 16.339844-17.597656 0-35.898438-3.808594-51.472656-12.589844-.089844-.050781-.175782-.105469-.265625-.160156-4.105469-13.039063-6.183594-26.507813-6.183594-40.082031 0-13.570313 2.078125-27.039063 6.183594-40.082032.089843-.050781.175781-.105468.265625-.15625 15.464844-8.742187 33.792968-12.589843 51.472656-12.589843 21.816406 0 42.234375 5.800781 57.488281 16.339843zm140.683594 36.488282c0-13.578125 7.933594-26.535156 22.339844-36.488282 15.253906-10.539062 35.671875-16.339843 57.488281-16.339843 17.910156 0 36.078125 3.855469 51.738281 12.746093 4.105469 13.039063 6.183594 26.511719 6.183594 40.082032 0 13.574218-2.078125 27.042968-6.183594 40.082031-.089843.054687-.175781.105469-.265625.160156-15.578125 8.785157-33.691406 12.589844-51.472656 12.589844-21.816406 0-42.234375-5.804687-57.488281-16.339844-11.902344-8.226562-22.339844-21.128906-22.339844-36.492187zm0 0" fill="#34b9f5"/></g></defs><g fi:class="KUsePattern" opacity="0.12"><pattern id="pattern_L1_63" width="350" height="350" patternUnits="userSpaceOnUse"><use xlink:href="#L1_63" x="-350" y="-350"/><use xlink:href="#L1_63" x="0" y="-350"/><use xlink:href="#L1_63" x="350" y="-350"/><use xlink:href="#L1_63" x="-350" y="0"/><use xlink:href="#L1_63" x="0" y="0"/><use xlink:href="#L1_63" x="350" y="0"/><use xlink:href="#L1_63" x="-350" y="350"/><use xlink:href="#L1_63" x="0" y="350"/><use xlink:href="#L1_63" x="350" y="350"/></pattern><rect x="0" y="0" width="100%" height="100%" fill="url(#pattern_L1_63)"/></g><g fi:class="KUsePattern" transform="matrix(1 0 0 1 20 20)" opacity="0.12"><pattern id="pattern_UNKNOWN" width="350" height="350" patternUnits="userSpaceOnUse"><use xlink:href="#UNKNOWN" x="-350" y="-350"/><use xlink:href="#UNKNOWN" x="0" y="-350"/><use xlink:href="#UNKNOWN" x="350" y="-350"/><use xlink:href="#UNKNOWN" x="-350" y="0"/><use xlink:href="#UNKNOWN" x="0" y="0"/><use xlink:href="#UNKNOWN" x="350" y="0"/><use xlink:href="#UNKNOWN" x="-350" y="350"/><use xlink:href="#UNKNOWN" x="0" y="350"/><use xlink:href="#UNKNOWN" x="350" y="350"/></pattern><rect x="0" y="0" width="100%" height="100%" fill="url(#pattern_UNKNOWN)"/></g><g fi:class="KUsePattern" transform="matrix(1 0 0 1 40 40)" opacity="0.12"><pattern id="pattern_UNKNOWN" width="350" height="350" patternUnits="userSpaceOnUse"><use xlink:href="#UNKNOWN" x="-350" y="-350"/><use xlink:href="#UNKNOWN" x="0" y="-350"/><use xlink:href="#UNKNOWN" x="350" y="-350"/><use xlink:href="#UNKNOWN" x="-350" y="0"/><use xlink:href="#UNKNOWN" x="0" y="0"/><use xlink:href="#UNKNOWN" x="350" y="0"/><use xlink:href="#UNKNOWN" x="-350" y="350"/><use xlink:href="#UNKNOWN" x="0" y="350"/><use xlink:href="#UNKNOWN" x="350" y="350"/></pattern><rect x="0" y="0" width="100%" height="100%" fill="url(#pattern_UNKNOWN)"/></g><g fi:class="KUsePattern" transform="matrix(1 0 0 1 60 60)" opacity="0.12"><pattern id="pattern_UNKNOWN" width="350" height="350" patternUnits="userSpaceOnUse"><use xlink:href="#UNKNOWN" x="-350" y="-350"/><use xlink:href="#UNKNOWN" x="0" y="-350"/><use xlink:href="#UNKNOWN" x="350" y="-350"/><use xlink:href="#UNKNOWN" x="-350" y="0"/><use xlink:href="#UNKNOWN" x="0" y="0"/><use xlink:href="#UNKNOWN" x="350" y="0"/><use xlink:href="#UNKNOWN" x="-350" y="350"/><use xlink:href="#UNKNOWN" x="0" y="350"/><use xlink:href="#UNKNOWN" x="350" y="350"/></pattern><rect x="0" y="0" width="100%" height="100%" fill="url(#pattern_UNKNOWN)"/></g><g fi:class="KUsePattern" transform="matrix(1 0 0 1 80 80)" opacity="0.12"><pattern id="pattern_UNKNOWN" width="350" height="350" patternUnits="userSpaceOnUse"><use xlink:href="#UNKNOWN" x="-350" y="-350"/><use xlink:href="#UNKNOWN" x="0" y="-350"/><use xlink:href="#UNKNOWN" x="350" y="-350"/><use xlink:href="#UNKNOWN" x="-350" y="0"/><use xlink:href="#UNKNOWN" x="0" y="0"/><use xlink:href="#UNKNOWN" x="350" y="0"/><use xlink:href="#UNKNOWN" x="-350" y="350"/><use xlink:href="#UNKNOWN" x="0" y="350"/><use xlink:href="#UNKNOWN" x="350" y="350"/></pattern><rect x="0" y="0" width="100%" height="100%" fill="url(#pattern_UNKNOWN)"/></g><g fi:class="KUsePattern" transform="matrix(1 0 0 1 100 100)" opacity="0.12"><pattern id="pattern_UNKNOWN" width="350" height="350" patternUnits="userSpaceOnUse"><use xlink:href="#UNKNOWN" x="-350" y="-350"/><use xlink:href="#UNKNOWN" x="0" y="-350"/><use xlink:href="#UNKNOWN" x="350" y="-350"/><use xlink:href="#UNKNOWN" x="-350" y="0"/><use xlink:href="#UNKNOWN" x="0" y="0"/><use xlink:href="#UNKNOWN" x="350" y="0"/><use xlink:href="#UNKNOWN" x="-350" y="350"/><use xlink:href="#UNKNOWN" x="0" y="350"/><use xlink:href="#UNKNOWN" x="350" y="350"/></pattern><rect x="0" y="0" width="100%" height="100%" fill="url(#pattern_UNKNOWN)"/></g><g fi:class="KUsePattern" transform="matrix(1 0 0 1 120 120)" opacity="0.12"><pattern id="pattern_UNKNOWN" width="350" height="350" patternUnits="userSpaceOnUse"><use xlink:href="#UNKNOWN" x="-350" y="-350"/><use xlink:href="#UNKNOWN" x="0" y="-350"/><use xlink:href="#UNKNOWN" x="350" y="-350"/><use xlink:href="#UNKNOWN" x="-350" y="0"/><use xlink:href="#UNKNOWN" x="0" y="0"/><use xlink:href="#UNKNOWN" x="350" y="0"/><use xlink:href="#UNKNOWN" x="-350" y="350"/><use xlink:href="#UNKNOWN" x="0" y="350"/><use xlink:href="#UNKNOWN" x="350" y="350"/></pattern><rect x="0" y="0" width="100%" height="100%" fill="url(#pattern_UNKNOWN)"/></g><g fi:class="KUsePattern" transform="matrix(1 0 0 1 140 140)" opacity="0.12"><pattern id="pattern_UNKNOWN" width="350" height="350" patternUnits="userSpaceOnUse"><use xlink:href="#UNKNOWN" x="-350" y="-350"/><use xlink:href="#UNKNOWN" x="0" y="-350"/><use xlink:href="#UNKNOWN" x="350" y="-350"/><use xlink:href="#UNKNOWN" x="-350" y="0"/><use xlink:href="#UNKNOWN" x="0" y="0"/><use xlink:href="#UNKNOWN" x="350" y="0"/><use xlink:href="#UNKNOWN" x="-350" y="350"/><use xlink:href="#UNKNOWN" x="0" y="350"/><use xlink:href="#UNKNOWN" x="350" y="350"/></pattern><rect x="0" y="0" width="100%" height="100%" fill="url(#pattern_UNKNOWN)"/></g><g fi:class="KUsePattern" transform="matrix(1 0 0 1 160 160)" opacity="0.12"><pattern id="pattern_UNKNOWN" width="350" height="350" patternUnits="userSpaceOnUse"><use xlink:href="#UNKNOWN" x="-350" y="-350"/><use xlink:href="#UNKNOWN" x="0" y="-350"/><use xlink:href="#UNKNOWN" x="350" y="-350"/><use xlink:href="#UNKNOWN" x="-350" y="0"/><use xlink:href="#UNKNOWN" x="0" y="0"/><use xlink:href="#UNKNOWN" x="350" y="0"/><use xlink:href="#UNKNOWN" x="-350" y="350"/><use xlink:href="#UNKNOWN" x="0" y="350"/><use xlink:href="#UNKNOWN" x="350" y="350"/></pattern><rect x="0" y="0" width="100%" height="100%" fill="url(#pattern_UNKNOWN)"/></g><g fi:class="KUsePattern" transform="matrix(1 0 0 1 60 60)" opacity="0.12"><pattern id="pattern_UNKNOWN" width="350" height="350" patternUnits="userSpaceOnUse"><use xlink:href="#UNKNOWN" x="-350" y="-350"/><use xlink:href="#UNKNOWN" x="0" y="-350"/><use xlink:href="#UNKNOWN" x="350" y="-350"/><use xlink:href="#UNKNOWN" x="-350" y="0"/><use xlink:href="#UNKNOWN" x="0" y="0"/><use xlink:href="#UNKNOWN" x="350" y="0"/><use xlink:href="#UNKNOWN" x="-350" y="350"/><use xlink:href="#UNKNOWN" x="0" y="350"/><use xlink:href="#UNKNOWN" x="350" y="350"/></pattern><rect x="0" y="0" width="100%" height="100%" fill="url(#pattern_UNKNOWN)"/></g><g fi:class="KUsePattern" transform="matrix(1 0 0 1 80 80)" opacity="0.12"><pattern id="pattern_UNKNOWN" width="350" height="350" patternUnits="userSpaceOnUse"><use xlink:href="#UNKNOWN" x="-350" y="-350"/><use xlink:href="#UNKNOWN" x="0" y="-350"/><use xlink:href="#UNKNOWN" x="350" y="-350"/><use xlink:href="#UNKNOWN" x="-350" y="0"/><use xlink:href="#UNKNOWN" x="0" y="0"/><use xlink:href="#UNKNOWN" x="350" y="0"/><use xlink:href="#UNKNOWN" x="-350" y="350"/><use xlink:href="#UNKNOWN" x="0" y="350"/><use xlink:href="#UNKNOWN" x="350" y="350"/></pattern><rect x="0" y="0" width="100%" height="100%" fill="url(#pattern_UNKNOWN)"/></g><g fi:class="KUsePattern" transform="matrix(1 0 0 1 100 100)" opacity="0.12"><pattern id="pattern_UNKNOWN" width="350" height="350" patternUnits="userSpaceOnUse"><use xlink:href="#UNKNOWN" x="-350" y="-350"/><use xlink:href="#UNKNOWN" x="0" y="-350"/><use xlink:href="#UNKNOWN" x="350" y="-350"/><use xlink:href="#UNKNOWN" x="-350" y="0"/><use xlink:href="#UNKNOWN" x="0" y="0"/><use xlink:href="#UNKNOWN" x="350" y="0"/><use xlink:href="#UNKNOWN" x="-350" y="350"/><use xlink:href="#UNKNOWN" x="0" y="350"/><use xlink:href="#UNKNOWN" x="350" y="350"/></pattern><rect x="0" y="0" width="100%" height="100%" fill="url(#pattern_UNKNOWN)"/></g></svg>