<svg xmlns="http://www.w3.org/2000/svg" xmlns:xlink="http://www.w3.org/1999/xlink" xmlns:fi="http://pattern.flaticon.com/" x="0" y="0" width="710" height="355" viewBox="0 0 710 355"><rect x="0px" y="0px" width="100%" height="100%" opacity="1" fill="#ffffff"/><defs><g transform="matrix(0.27543264627456665 0 0 0.27543264627456665 170.48918342590332 84.53080228631575)" id="L1_66"><path d="M249.218,131.589c-7.604-18.382-25.011-30.975-39.097-36.593c-0.286-0.129-0.577-0.239-0.872-0.334    c-3.597-1.374-6.96-2.29-9.854-2.712c-15.035-2.192-28.292,1.125-37.326,9.329c-8.885,8.069-13.379,20.211-13.385,36.133    c-2.355,2-5.564,4.961-8.742,8.634c-8.491,9.814-12.819,20.179-12.515,29.973c0.235,7.542,5.069,17.066,13.265,26.129    c4.576,5.061,9.774,9.452,15.293,12.995c0.13,0.09,0.266,0.173,0.402,0.257c4.84,3.063,9.919,5.475,15.048,7.091    c5.627,1.773,10.952,2.55,15.967,2.55c23.377-0.001,39.971-16.88,48.55-28.366C247.753,180.878,259.633,156.763,249.218,131.589z     M222.432,186.573c-13.757,18.417-29.207,25.086-45.923,19.819c-2.173-0.685-4.265-1.545-6.272-2.53l5.286-27.199    c0.889-4.575-2.099-9.005-6.675-9.894c-4.571-0.881-9.004,2.1-9.894,6.675l-3.776,19.433    c-6.758-6.821-10.774-14.052-10.878-17.384c-0.359-11.526,12.752-23.569,17.841-27.241c2.327-1.669,3.649-4.404,3.511-7.266    c-0.62-12.815,1.993-21.97,7.765-27.214c5.351-4.857,12.801-5.774,18.605-5.569l-11.297,15.179    c-2.783,3.738-2.007,9.026,1.732,11.808c1.513,1.126,3.28,1.669,5.032,1.669c2.577,0,5.12-1.175,6.776-3.4l15.086-20.269    c9.079,4.797,19.454,13.201,24.273,24.847C239.55,152.368,235.785,168.697,222.432,186.573z" fill="#34b9f5"/><path d="M212.581,152.413c-2.308-7.644-10.404-12.077-18.051-9.883c-3.741,1.076-6.827,3.549-8.689,6.964    c-1.872,3.434-2.277,7.398-1.143,11.16c1.905,6.323,7.769,10.449,14.064,10.449c1.32,0,2.659-0.181,3.984-0.561    c3.741-1.075,6.828-3.548,8.69-6.964C213.309,160.143,213.716,156.178,212.581,152.413z" fill="#34b9f5"/><path d="M496.615,222.52c-17.803-38.387-50.349-70.697-96.731-96.033c-4.091-2.235-9.217-0.728-11.452,3.36    c-2.235,4.091-0.729,9.218,3.361,11.453c71.367,38.984,142.772,114.678,77.83,253.918c-1.522,2.713-17.701,30.022-47.409,22.357    c-44.317-11.437-119.632-22.203-164.02-19.675c-19.362,1.106-32.256,6.127-42.618,10.161c-12.705,4.947-17.963,6.993-27.498-0.033    c-2.553-1.881-5.823-5.01-8.746-9.069c-0.072-0.1-0.144-0.201-0.215-0.303c-0.32-0.452-0.634-0.917-0.943-1.391    c-2.288-3.546-4.024-7.353-5.041-11.185c-0.047-0.18-0.11-0.353-0.17-0.528c-1.048-4.229-1.315-8.836-0.32-13.684    c4.768-23.193,37.296-42.954,91.59-55.638c32.418-7.575,61.471-11.872,86.355-12.776c4.657-0.169,8.296-4.082,8.128-8.741    c-0.169-4.658-4.069-8.302-8.741-8.128c-25.453,0.925-54.923,5.22-87.602,12.755c19.752-14.605,37.339-31.657,50.585-50.875    c2.644-3.837,1.679-9.092-2.159-11.738c-3.839-2.644-9.094-1.678-11.738,2.16c-47.659,69.148-159.469,109.518-208.715,101.949    c-7.042-1.082-15.655-3.612-19.328-9.497c-0.01-0.016-0.018-0.033-0.028-0.048c-0.226-0.367-0.428-0.749-0.614-1.141    c-0.042-0.088-0.083-0.176-0.123-0.264c-0.186-0.417-0.356-0.845-0.493-1.294c-10.507-34.149,49.003-71.845,76.296-85.346    c9.292,2.546,19.31,3.533,29.24,3.533c32.391,0,63.798-10.446,65.691-11.087c4.413-1.493,6.779-6.28,5.289-10.694    c-1.491-4.415-6.278-6.779-10.694-5.295c-0.565,0.191-52.924,17.568-87.265,6.641c-0.308-0.117-0.622-0.221-0.942-0.302    c-2.288-0.771-4.492-1.671-6.589-2.715c-9.272-4.617-15.338-11.536-18.544-21.154c-10.358-31.072-2.486-73.273,19.144-102.625    c14.303-19.41,32.38-29.894,50.948-29.492c32.644,0.688,53.741,11.657,74.143,22.267c14.091,7.329,28.663,14.905,46.29,18.62    c10.824,2.281,29.669,7.793,50.098,16.424c4.292,1.812,9.244-0.198,11.058-4.49c1.814-4.293-0.196-9.245-4.49-11.059    c-27.099-11.448-47.56-16.204-53.185-17.391c-15.368-3.238-28.296-9.962-41.984-17.08c-21.089-10.966-44.991-23.396-81.575-24.165    c-24.191-0.542-47.24,12.401-64.89,36.354c-24.685,33.5-33.556,82.014-21.568,117.976c3.812,11.436,10.654,20.501,20.371,27.047    c-9.399,5.322-21.953,13.083-34.099,22.622c-15.952,12.526-33.067,29.834-38.839,49.49c-14.643,4.116-26.587,10.408-35.538,18.755    C3.568,339-2.266,357.038,0.788,379.036c0.486,3.503,3.111,6.322,6.566,7.075c0.599,0.131,1.198,0.194,1.795,0.194    c2.845,0,5.555-1.445,7.126-3.911c0.167-0.262,16.219-24.962,46.191-35.328c5.291,4.636,13.277,8.6,25.319,10.45    c4.608,0.709,9.668,1.058,15.109,1.058c17.805,0,39.65-3.744,62.781-10.857c-4.855,6.515-8.06,13.447-9.561,20.752    c-0.997,4.849-1.187,9.617-0.729,14.218c-31.863,12.48-46.885,36.699-42.42,68.868c0.487,3.511,3.117,6.343,6.581,7.09    c0.593,0.127,1.189,0.189,1.778,0.189c2.857,0,5.573-1.455,7.138-3.941c0.165-0.263,16.208-25.23,46.779-35.516    c0.931,0.789,1.872,1.538,2.823,2.239c17.016,12.536,29.945,7.502,43.634,2.174c9.733-3.79,20.765-8.085,37.457-9.039    c41.421-2.36,115.569,7.999,158.839,19.166c5.053,1.304,9.876,1.888,14.456,1.888c26.999-0.001,45.48-20.29,52.147-32.792    c0.07-0.13,0.136-0.263,0.199-0.397C516.551,334.67,520.527,274.076,496.615,222.52z M19.08,353.849    c2.059-6.095,5.57-11.429,10.557-16.08c6.458-6.021,14.63-10.091,22.23-12.819c0.034,0.321,0.088,0.644,0.128,0.964    c0.057,0.457,0.119,0.915,0.191,1.369c0.055,0.347,0.111,0.693,0.176,1.04c0.138,0.763,0.29,1.522,0.468,2.28    c0.033,0.137,0.072,0.275,0.106,0.412c0.116,0.474,0.233,0.948,0.365,1.419C38.856,338.039,27.44,346.248,19.08,353.849z     M131.388,426.244c4.091-11.913,13.614-21.008,28.495-27.184c1.061,2.326,2.272,4.561,3.604,6.686    C150.054,411.283,139.347,419.029,131.388,426.244z" fill="#34b9f5"/><path d="M432.869,304.471c-1.662-1.116-17.176-11.037-49.825-15.677c-4.618-0.658-8.884,2.554-9.541,7.166    c-0.658,4.615,2.55,8.887,7.163,9.545c8.29,1.184,32.138,5.822,42.792,12.976c1.445,0.97,3.08,1.435,4.698,1.435    c2.717,0,5.385-1.31,7.014-3.735C437.768,312.311,436.738,307.068,432.869,304.471z" fill="#34b9f5"/></g></defs><g fi:class="KUsePattern" opacity="0.09"><pattern id="pattern_L1_66" width="350" height="350" patternUnits="userSpaceOnUse"><use xlink:href="#L1_66" x="-350" y="-350"/><use xlink:href="#L1_66" x="0" y="-350"/><use xlink:href="#L1_66" x="350" y="-350"/><use xlink:href="#L1_66" x="-350" y="0"/><use xlink:href="#L1_66" x="0" y="0"/><use xlink:href="#L1_66" x="350" y="0"/><use xlink:href="#L1_66" x="-350" y="350"/><use xlink:href="#L1_66" x="0" y="350"/><use xlink:href="#L1_66" x="350" y="350"/></pattern><rect x="0" y="0" width="100%" height="100%" fill="url(#pattern_L1_66)"/></g></svg>