<?xml version="1.0"?>
<svg xmlns="http://www.w3.org/2000/svg" id="Capa_1" enable-background="new 0 0 512 512" height="512px" viewBox="0 0 512 512" width="512px" class=""><g><g><path d="m352.4 367.399c3.839 0 7.678-1.464 10.606-4.394l64.267-64.267c5.858-5.858 5.858-15.355 0-21.213-5.857-5.858-15.355-5.858-21.213 0l-64.267 64.267c-5.858 5.858-5.858 15.355 0 21.213 2.93 2.93 6.769 4.394 10.607 4.394z" fill="#5f0000" data-original="#887676" class="" style="fill:#887676" data-old_color="#9F8484"/><path d="m497 192.8h-40.166c-30.419 0-55.167 24.748-55.167 55.167v40.167c0 8.284 6.716 15 15 15h40.167c30.419 0 55.166-24.748 55.166-55.167v-40.167c0-8.284-6.716-15-15-15z" fill="#9adb05" data-original="#B4D671" class="" style="fill:#B4D671" data-old_color="#9ADB05"/><path d="m512 247.966c0 30.419-24.747 55.167-55.166 55.167h-40.167c-4.142 0-7.892-1.679-10.607-4.393l101.546-101.546c2.714 2.714 4.393 6.464 4.393 10.607v40.165z" fill="#00a863" data-original="#5F9C6C" class="" style="fill:#5F9C6C" data-old_color="#00FF59"/><path d="m159.6 512c-3.839 0-7.678-1.464-10.606-4.394l-64.267-64.266c-5.858-5.858-5.858-15.355 0-21.213 5.857-5.858 15.355-5.858 21.213 0l64.267 64.267c5.858 5.858 5.858 15.355 0 21.213-2.93 2.929-6.769 4.393-10.607 4.393z" fill="#912200" data-original="#887676" class="" style="fill:#887676" data-old_color="#912200"/><path d="m95.333 447.733h-40.166c-30.419 0-55.167-24.747-55.167-55.166v-40.167c0-8.284 6.716-15 15-15h40.167c30.419 0 55.166 24.748 55.166 55.167v40.167c0 8.284-6.716 14.999-15 14.999z" fill="#9adb05" data-original="#B4D671" class="" style="fill:#B4D671" data-old_color="#9ADB05"/><path d="m110.333 392.567c0-30.419-24.747-55.167-55.166-55.167h-40.167c-4.142 0-7.892 1.679-10.607 4.393l101.547 101.547c2.714-2.714 4.393-6.464 4.393-10.607z" fill="#00a863" data-original="#5F9C6C" class="" style="fill:#5F9C6C" data-old_color="#00FF59"/><path d="m159.6 222.8c-3.839 0-7.678-1.464-10.606-4.394l-64.267-64.266c-5.858-5.858-5.858-15.355 0-21.213 5.857-5.858 15.355-5.858 21.213 0l64.267 64.267c5.858 5.858 5.858 15.355 0 21.213-2.93 2.928-6.769 4.393-10.607 4.393z" fill="#912200" data-original="#887676" class="" style="fill:#887676" data-old_color="#912200"/><path d="m352.4 512h-192.8c-8.284 0-15-6.716-15-15v-482c0-8.284 6.716-15 15-15h192.8c8.284 0 15 6.716 15 15v482c0 8.284-6.715 15-15 15z" fill="#f5f5f5" data-original="#F5F5F5" class="" style="fill:#F5F5F5"/><path d="m367.4 497v-482c0-8.284-6.716-15-15-15h-96.4v512h96.4c8.285 0 15-6.716 15-15z" fill="#e0e3ee" data-original="#F5F5F5" class="" style="fill:#F5F5F5" data-old_color="#E0E3EE"/><path d="m95.333 158.533h-40.166c-30.419 0-55.167-24.747-55.167-55.166v-40.167c0-8.284 6.716-15 15-15h40.167c30.419 0 55.166 24.748 55.166 55.167v40.167c0 8.283-6.716 14.999-15 14.999z" fill="#9adb05" data-original="#B4D671" class="" style="fill:#B4D671" data-old_color="#9ADB05"/><g fill="#5f0000"><path d="m241 144.6h-96.4v30h96.4c8.284 0 15-6.716 15-15s-6.716-15-15-15z" data-original="#938888" class="" style="fill:#938888" data-old_color="#878181"/><path d="m207.8 110.333c8.284 0 15-6.716 15-15s-6.716-15-15-15h-63.2v30z" data-original="#938888" class="" style="fill:#938888" data-old_color="#878181"/><path d="m241 401.667h-96.4v30h96.4c8.284 0 15-6.716 15-15s-6.716-15-15-15z" data-original="#938888" class="" style="fill:#938888" data-old_color="#878181"/><path d="m207.8 367.4c8.284 0 15-6.716 15-15s-6.716-15-15-15h-63.2v30z" data-original="#938888" class="" style="fill:#938888" data-old_color="#878181"/></g><path d="m271 273.133h96.4v30h-96.4c-8.284 0-15-6.716-15-15s6.716-15 15-15z" fill="#280000" data-original="#545050" class="active-path" style="fill:#545050" data-old_color="#999292"/><path d="m304.2 238.867c-8.284 0-15-6.716-15-15s6.716-15 15-15h63.2v30z" fill="#280000" data-original="#545050" class="active-path" style="fill:#545050" data-old_color="#999292"/><path d="m110.333 103.367c0-30.419-24.747-55.167-55.166-55.167h-40.167c-4.142 0-7.892 1.679-10.607 4.393l101.547 101.547c2.714-2.714 4.393-6.464 4.393-10.607z" fill="#00a863" data-original="#5F9C6C" class="" style="fill:#5F9C6C" data-old_color="#00FF59"/></g></g> </svg>
